<mxfile host="app.diagrams.net" modified="2023-03-24T08:16:57.173Z" agent="Mozilla/5.0 (Windows NT 10.0; Win64; x64) AppleWebKit/537.36 (KHTML, like Gecko) Chrome/99.0.4844.51 Safari/537.36" etag="3g1v8s96ztI822riV9hu" version="21.1.0" type="github">
  <diagram name="Page-1" id="e7e014a7-5840-1c2e-5031-d8a46d1fe8dd">
    <mxGraphModel dx="1648" dy="651" grid="1" gridSize="10" guides="1" tooltips="1" connect="1" arrows="1" fold="1" page="1" pageScale="1" pageWidth="1169" pageHeight="826" background="none" math="0" shadow="0">
      <root>
        <mxCell id="0" />
        <mxCell id="1" parent="0" />
        <mxCell id="2" value="巡检人员/设备" style="swimlane;whiteSpace=wrap" parent="1" vertex="1">
          <mxGeometry x="180" y="128" width="264.78" height="570" as="geometry" />
        </mxCell>
        <mxCell id="W03iT5deWGhQW9dc3xwe-59" value="" style="shape=image;verticalLabelPosition=bottom;labelBackgroundColor=default;verticalAlign=top;aspect=fixed;imageAspect=0;image=data:image/png,iVBORw0KGgoAAAANSUhEUgAABLAAAADYCAYAAAD7yRrrAAAAAXNSR0IArs4c6QAAAERlWElmTU0AKgAAAAgAAYdpAAQAAAABAAAAGgAAAAAAA6ABAAMAAAABAAEAAKACAAQAAAABAAAEsKADAAQAAAABAAAA2AAAAAByt/z8AABAAElEQVR4Ae2dCYAcVZ3/36ueIzdHuBIygICosOIBCghoAgLe6+5KvEHAkElCFlDEC2T2v66uEQUNSSZE5V41rOuBAuEQREQQEUFxXQmozGQSztyTObq7/t+ayUwmk+6e6u5XXdXdn4JOV1e993u/93nV013f/r3fsybM5rd55safH2tM5r0ma4421kw3vh7GTA5TvQ7KZMXkBePbdXp+2hi7yqQabzMf/vnfk9z3z9131DQ/678tmzVvs9a8XL7u5/tmH2P8VJL9rqBvW621a3Wtd1ljH/NT/o/GZafc1zbr3nQFfaApCEAAAhCAAAQgAAEIQAACEIBA3ROwBQnc+vZm88Lm8yRofEo38fsWLMvJXQlYe6fx7L+Zj/zyV7uejO/Ip3/5xteY/vQXjPX/SeNa+BqIz81Etiyhb70ei3dvmHD5p0/41eZEOolTEIAABCAAAQhAAAIQgAAEIACBGiOQX7y44cT3Gt//hh4H1Fif4+jOT0xj4znmQ/e+EEfjQ2223TNzUo/ZeJVvzBkIV0NUSn5+zqbMZ//zLY9+p2QLVIQABCAAAQhAAAIQgAAEIAABCEAgFIFdBSzft+aGE9pU+1JEjlAMwxZaY1Le++OKxvr0L456tcn4Nyua7hVhHabc2ASs9drHmckLmVY4NitKQAACEIAABCAAAQhAAAIQgAAESiWws4A1IF6deKOirj5UqkHqFSTQbaw9zZxx//0FSzk+een9bziiry99n8zu6dg05gIC1tx58GTvnXOPfqQfIBCAAAQgAAEIQAACEIAABCAAAQi4J+DtZDKIvEK82gmJ4xcTZO+ninB7jWO7ec195p5jD+rry9yhAohXeSmVecI3p/x1c3ZpmVaoDgEIQAACEIAABCAAAQhAAAIQgEAeAjsErIGcV+YLecpx2BUB399NUzP/y6w8vcmVyXx2/CCizvReq2mDwYqRbBES0OqNH//0vUfNi7AJTEMAAhCAAAQgAAEIQAACEIAABOqWwKCAFaw2GCRsZ6sMAd8/3PR0fT7qxj5371HnSlh5S9TtYH87AT/7pbYHjiPSjQsCAhCAAAQgAAEIQAACEIAABCDgmMCggPXC5vNYbdAx2bHM+fZic93JU8cqVur5bz759mbf+P9ean3qlUDAN7tv6+uLXJgswTOqQAACEIAABCAAAQhAAAIQgAAEqpqAZ/w2iVj+p6q6F1XpvD/OmL6zo3K9q/PZ9yn6au+o7GM3NwHr+/Pb7pk5KfdZjkIAAhCAAAQgAAEIQAACEIAABCBQCgHP3HT3ccrJtG8plalTLgF/TrkW8teP0nb+Vuv9jPKOjes1W95W7xzoPwQgAAEIQAACEIAABCAAAQhAwCUBRWBl/9GlQWwVQ8B/uVk5c79iaoQp2/bE6U2Kvjo2TFnKuCfgm+x73VvFIgQgAAEIQAACEIAABCAAAQhAoH4JSMCyb6jf7ieg5z1p5/z7n1t9pHrWnIDe1aULEg+PrsuO02kIQAACEIAABCAAAQhAAAIQgEBEBIL8V9Miso3ZUATs60IVK6JQxnivLaI4RV0TsGa6a5PYgwAEIAABCEAAAhCAAAQgAAEI1DMBRWBxsx3vBeAf4Lx9P+vepnMna9ig708mkXsNjy9dgwAEIAABCEAAAhCAAAQgAIGKE1AElplc8VZpcAcB32/Z8cLRnrXubTpyrV7M9KU2876ql8GmnxCAAAQgAAEIQAACEIAABCAQOYFAwGKLk0AEYpNvDAJWnGNK2xCAAAQgAAEIQAACEIAABCAAAQg4JYCA5RRnCcZ8f0YJtQpWsVFEdRVskZMQgAAEIAABCEAAAhCAAAQgAAEIQCA6AghY0bENa3my+eHM3cMWDlfOOhfFwrVLKQhAAAIQgAAEIAABCEAAAhCAAAQg4J4AApZ7psVb3GycCU6ffeiNU33jTyjeCWpAAAIQgAAEIAABCEAAAhCAAAQgAIFkEmhIplt15pXXH+Ss+qOLXmf73IlhLvzBBgRyEZg7d+78XMdLPNa7fPnyb5dYty6qXXjhheO7u7vPctjZ9WL+XYf2MAWBqiBw7rnnnur7/qGunE2lUv/d3t7+nCt72IEABCBQqwT093cv/c2c4rp/kydPfn7RokWbXdvFHgQgEA0BBKxouBZn1Xe3aqCXTrdki2ud0hCoOAHdAF6lRq2jhjfKDgJWAZjZbHaKmC8pUKTYU39WBQSsYqlRvhYInK1OvN9VRzKZzMOyhYDlCih2IACBWibw/9Lp9DzXHdy4cePHZZPvka7BYg8CERFAwIoIbFFmfXerBmaDVQ19rUPIBgEIQAACiSOg6MNPSFCc68KxhoaGM5ctW/agC1vYgAAEIAABCEAAAhCAQNIJIGAlYYQC0cnRZrPZFuQrRzAxAwEIQMAxAUXC7S2Th7kwK1vkO3QBEhsQgAAEiiCwcuXK1D333POGIqqMWVTRmI9cffXV/WMWpAAEIACBOieAgJWEC8DPOhOwDBFYSRhRfIAABCAAAQhAAAIQqEECd9999z8qkvYHDrv2F4lXr9TDocniTLW2th7vKjo4aFkRwvOXLl26pTgvKA2BZBCYN2/eHhKVv5cMb6rLC/246ltrn5bX/6W/afdH4T0CVhRUi7XpMAeWMb47MazYflAeAhCAAAQgAAEIQAACNUxAQs8Cl93Tzd4SPWKdQKE+vUv3nR910S/1pQPxygVJdzaUAP8XsvZadxarz5LneXO0aMrKMJ43adPiR6eGKUuZXQnob0lwsFVpM1q16JNzZR4Ba1fmlT9i/RnOGh0Qw2L9DHTWFQxBAAIQgAAEIAABCEAgKQQUmfEKJRI/yZU/Enu6J0yYcL0re2XYObqMuqOr/nL0AV7HTmCSRAXnKzjG3qviHGgsrjilyyRgdc1dsXDhwu8tXrx4U5m2dqru7fSKF/EQ8M14c93JU8ttXBeJfr7x9y/XDvUhAAEIQAACEIAABCAAgZ0JaFrReTsfKfvVjVdeeeWGsq2UYSC4f1D1o8owsVNViXIIWDsR4QUE6pOA/rZM6Ovrcx75l4wILGszGtan9OiNfHh9f7Kx5kDj698kbQ2ZYOrfi+W49PmHjt1H9ZvLsRFJXWs6jbHrI7G9s9Hgej5UqzCisO/MhVcQgMAYBLZ/gR+jVP7TcU//yO/Z4Jly+pf0vo3Vd85DAAIQcEHgoosumrhp0yYn0+yG/FGuqGVD+3E9z58//zB9Ruzhqn19ZtzvyhZ2IACBqiewm+sexCtgWfOwMd6nzB67P2zefUu3687ltXfj26cYf9PbTNZenpicUZl0IGD9Pq/PIU5ku/vdTUUM0V7BIta+4BnvM83NjT9se9OvXypY1uHJbz759ua1Hc+9Nmv9/5CQdbJD05iCAARqlIC+vLcoP8Qz5XRP9b+kZJWfL8dGVHXl28/1mFWqfdVdo74l5/Ol1I5QDwIQgEAZBCRenSGhx+XN2K+UK6qs7/5ldGe4qvJfHTP8oswdiVfrly1b9oRyDZVpieoQgAAEchOIUcCy3zDjpn3SzL45k9u1CI9+5LZgHuZKc/2pPzOm+6cSOmZG2Fo4074JBKyyNn1otOiDtSwbTipb+4fxzc0zKylcDfn9ry+/LYjie0gcTvnsL47+jJ/NfmnoHM/5CSinw9v1BabkG9z8lnOf0fg4i4DUdT9OSQIX5W6JowGBnp6eiY5J7BMHc103V0lIKUtocswBcxCAAAQgUD8E5rnsqpJKL3Fpr1Rb+mw9ttS6o+vJ1q/0vSwBNyOjPeM1BCBQKwTiEbCCyKu4xKuRI3fGHVslYr3fmK2P6vD0kacqvm/LF7CyNtuiqZGxbtbYQBz85zjEq5Ed3/7h+eVP3/P64yVQvnPkOfZ3JSDx6kR96fjUrmeSf0R+B9Nmq9L35NPN6+GecVwvqVTqf+QRAlbeYeEEBCAAAQhEQWDOnDlv0efeq13Z1vfU56ZNm/YDV/bKsaN+HV9O/ZF11S/yX40Ewj4EIOCcQExJ3DVtMI7Iq1z4zrjjOeVnWpHrVGWP+eVHYGVt2TbK7bP0s+//56zfrS7Xjqv6jV7jha5sYQcCEIAABCAAAQhAoP4ISJhZ4LjXK9ra2voc2yzanFYIm6K+/UPRFfNUQMDKA4bDEICAMwKVj8AKErYHOa+StHn2JybrXxarSw6mEGpSVuwRWJ41P4mV46jGv/iWh578zM9f/6JWZyx7lcdRpnkJAQhAAAIQqGkCusH21qxZc0lNd5LOuSbQvWLFCuWYrZ1NeRL3S6fT73XYo4xsXe3QXsmm+vv7j1MElquAhh5FlT1SsjNUhAAEIBCCQOUFrGC1wUombA8BwcxIPW6eyWZV1NUf8DCt7lxG+at2PlD8K2v8lphnEGoJxMbYk1HuQs76f9DUypm7HOcABCAAAQhAAAKFCATfE/+tUAHOQWAkAUXgBCtq15SAJfGqVSKPsxWuxeiWpORzzGQyJ4wcv3L21a+HkhBVVk4fqAsBCCSfQByCTZBkO1nbrHvTcmhdvE75+ytXU1mJrVW9bBGsPAY2c/jMA9aWZ8N9bd/Y5F1z7ruJRQhAAAIQgAAEIAABhwQkyDRIvJrj0KS+7vuJSN4e9Emi05sd9u1+h7YwBQEIQCAngTgErJyOxH7Q2o5YffBNk/nuW/cp1Yc2v82zNt5E9Gq/a7aNYVXJUqFRDwIQgAAEIAABCEAAAnkIrFu37p91ytlCTxKMnlT01d15mqvoYeW/ChbBOcZVo1pVkQTurmBiBwIQyEsAAWsIjW/iFbACP9KZ0iOofvXj/fSLThxTQocIBr8oxc9w2Bt2IAABCEAAAhCAAAQgUDoBrdLsNHl7EH0lESvujB8DQDQ18o3yJxCxXGyZxsbGX7swhA0IQAAChQggYA3RsQkQX7x0yQJWb59Xct0hBOU+6wMZAatciNSHAAQgAAEIQAACEIidwNy5cw+XwONsip2+J3dPnDjxutg7tt0B5b+a6coX9e3xxYsXb3JlDzsQgAAE8hGINWInn1PxHPckvgR53GPcslpFsNQtSAIf8+85ah4Bq9Txox4EIAABCEAAAhCAQGIISLw6z6UzsnfTlVdeucGlzXJsyZ+Z5dQfVfeXo15H8fIJCWW3uTYsDty/uIaKPQhESAABaxiu3zm8G9dOGUnYfZuNXcDyfCKw4rp0aBcCEIAABCAAAQhAwA2Biy++ePL69es/4sbaoJVUKrXMpb1ybCk5fVNXV9dxEm/KMTNcV8JS5AKWcocFye8TkwB/uPPsQAACFSXAFMIh3F4C1PdAhCp1Kyd6q9Q2R9dLJUAEHO0TryEAAQhAAAIQgAAEIFAEgQ0bNpyp4pOLqFKwqASeB9rb2x8tWKiCJ5999tljJF6Nd9WkxLn7XdnCDgQgAIFCBIjAGqLT1NxhtvUOvYrpWdMAS9x868cegeX7KUJwSxw/qkEAAhCoBwLnnnvuw+rnuKT2VTeZtyxfvvxzSfUPvyAAgYoRmOe4pURFDin/1UkO+7d66dKl6xzawxQEYiWwxx57PK8FHEq+L4/V+TIa7+3tfY2E7Z+WYaIiVRGwhjCf/ua15oa70lpKL04mM4bcKfbZGtvix5wEa1wSVnIsFhzlIQABCECgkgSOcPmrfwSO/z4Cm5iEAASqiEBra+tJEngOd+jy89OnT/9vh/ZcmHIpYBF95WJEorXxriZtUTXR399/oz7bT3Bs/zK57GzRg/Hjx78Q1j9NsQ0SY3eGLV8r5bRwxX4ax8R3J06xJllwrC7U60/oklMHxOjYdOO3eSbwpdjN90sWv4ptKld5a0zfZTN/82yb0R4bBCAAAQhAAAIQgAAEqpCAIi8WuHRbkZ0rdEPc59JmObYUCTtBN6nHlmNjVN3I81+Nao+XRRJQ/rC1RVYpqriuqVcVVSFEYYlX31uyZMnfQxSlSJ0RQMAaOeCDEUTxCVhB9NfN902TS2tGujXWfts9Mxt6/I1Bvdg235o1+oBOvmQbGyEahgAEIAABCEAAAhBIMgFFX+0vAes9rnzUd+NsY2Pj1a7sObITRMo4i8ZRH6dKwDjdkW91ZUZC4t9WrFgRTK2v2m3BggWH9fX1TXXZAV1TT0q8+otLm9iqHQIIWCPH0pqOmGfhKY6pN5hvW5SAta1x83TTZ2JNyG9ZgXDklcQ+BCAAAQhAAAIQgECVEdDUwVa57Oz+SALFLQmMIjnZ5bCoj4tc2qsnWxJqrlF/q1rA0vTBUyIYs59FYBOTNUIgVtEjcQxtAlYizBafyN3rK76Oc/aB+McGAQhAAAIQgAAEIACBKiSgKKJGCQofd+m67C11ac+FLQlOTgUsFz5ho6oJnObae12jCFiuodaQPWe/MNQEE992mrhDsHxT9IoH1mbiX4HQJED8q4mLMJ5OeJ73VS2BvKJSrSvU+GmHbW3WPPnXOLRXc6bS6fTemhLxkKuO6Qv505oS8VZX9sLaUbtBnkI2CEAAAhCAgHMC+ox5nz4r93NlWPae1Kqmdyr/kCuTZdvRdK+piph5nQSCsm1hAAIXXXTRxE2bNjn9Pqj3zSYtenAfdCGQjwAC1kgynqKIMiMPxLBvi4+mygZ1Yv8gCsQ/tmolsGzZsvXyPXhUZNOvnME3J1cZ/7NXXXXVXyvieJU2cv7553dv27bNmff64tsHc2c4MQQBCEAAAgkg4Dp5u7q0VDfjiVKKJF6dpM9wZuAk4HqrBRckXr1D19N4x325NUmLHjjuG+YcEEDAGgkx26BpcP0jj8Swny0+AkvTDv2YI8c8jwisGC4WmoQABCAAAQhAAAIQKJPAvHnzjlS08vFlmhmuLuFqmyLbrxs+kJwdp9EyyekWnsREwHnyfr13fhRTX0I3qx/i/1uFJ4SuUKCgBMDFSuR/W4EinBpFAAFrJJCGVIfpj1vAsjNGuhRmP2v9BEwhFDs2CEAAAhCAAAQgAAEIVBkBiVfnOXb5pu3R7Y7Nlm0OAatshBgICFxwwQW7b9269d0uaUi86t1tt91udWnTta2VK1em7rzzzn+WXSczSZTGJYlCt2tsTu0hYI3E+cG7njM3nNCnYCZnS8uONB9q35cYVfxWtOhVfBOFa4zLEoFVmBBnIQABCEAAAtVF4LLLLutvbW11/gt7dVHA2yIJ9BZZPvbiiqbYTVEQH3LsyDLH9so2p34eon4eXLYhDEBABJSa4gN6GucShq7PuxctWrTZpU3Xtn7+859PlU0n4lXgm6Yuv+jax1q3h4A1coSDeerXn9CpRO5x/nHfz9wzs8HMujc90rVC+1aiV6wT7BUm3TbrkRcK+cg5CEAAAhCAAASqi8D2/D3BVAk2CNQygbPUuYmuOqj3za+VuP13ruw5tHOqQ1uYqnMCEps+5hqB3js/dG3TtT31ey+XNtXnl1zaqwdbJPHbdZTjngrnmS5v/13dyn2k7YnTm3xr9sl9tlJHfYl+bBCAAAQgAAEIQAACEKgeAroZDSIpWl16rBvSpS7tubKlvp7iyhZ26pvA3LlzX6Pr6RiXFPS+SU+cOPF/XNqMyJZTAUurehOBVeRAIWCNBuYnYCpcpi/0NMKel/42Q1MenYUxjsYR5rX1bdyiXxg3KQMBCEAAAhCAAAQgAIFhApoi+1bdiL9i+ED5O883NTXdXL4ZtxaCvD0SCE5yaxVr9UpA75n5EfT9riuuuKIaopGcClhiiYBV5MWEgDUamLXxRxNZE1rAsv3hy47uqrPXNgGin7POYAgCEIAABCAAAQhAoB4IKP/MApf9VELmby1evDhxecCUdPoY3Sjv5rKv2KpPAgsXLpyia+nDrnuv9873XduMyJ4zAUuicv/SpUu3RORnzZpFwBo9tL6JP5rIt6EFrKzNhC47uqvuXidA9HPXGSxBAAIQgAAEIAABCNQ4ASU1P0BdfJerbupmNNvQ0LDclT3Hdt7u2B7m6pRAb2/v2eq6s5xx2zH2jRs37kfVgFTinTMBS/0l+qqEQSeJ+2hoVgJWrBnR5ZAfPqpKH5YteiON7kVFX2v+YvyiX0V7TGPlEtCvLB/Qdetk6qveA33l+lPr9fUL8wZxClaLcbJp/DY5MYSReiSwWtei01WLXEKUb+tc2sMWBCCQXAJ6v7fqu0jKoYc/XbJkyd/D2pOAdrnanxm2/Fjl9Nn8o+XLl38xTzkErDxgOByeQDAV9a677jo/fI3QJW+78sorN4QuHW9BlwJWNUyZjJd2jtYRsEZDSTV0mHT/6KOVfW39GWEb9LPZ+COwPA8BK+yAUW6AQHt7+0pQVI7A9ukM1RKaXTkwtFRxAlqZ68iKN0qDEIAABEYRaGtra+rq6jpn1OGyXkpACp28ff78+S3pdDoQApzdi0kMOzdXB84///x9u7u7X5/rHMcgUAwBTUV9r8ofVEydMGX13rk+TLmElHEmYOk9SwRWCYMaxxTCSSX4Wbkq6VT8YkyREViVg5O7paxJdg4sa/xkX3O5sXIUAhCAAAQgAAEIQCACAmvXrp2tm0eXq3ivXrZs2R1hXe3v779A7TsTrxRNdpd+IPhdrvZ7enpO03EnUe+57HOsfgjoOvtkBL19adq0aT+NwG4kJvW+nerKsHgiYJUAMwYByz/I/Pg9k0vwtTJVzrz7Rf2J31aZxvK0Yv3QUVW+CR+tlae1sg+Pz06OX/TL0wv9kZF+ZV+d5zSHIQABCEAAAhCAAATqjEAEyduX6WY0VE6PIAm2yn7cJXLZW5TPnr4LvyPfOY5DICyBefPmnahr6biw5cOW07X7fUVEVlM6EGcRWGLEFMKwF8qIcpUXsHzJQxtfPGWEDwnctXELMnubW9/eHAaMLSLhexh7xZax1mxpm3VvYucsX3LvUcdI5JtSbL8oDwEIQAACEIAABCBQewRaW1tfp14d66pnugHfpilQ14S1pyTYcyUEOPtuqvYfU+6rO3O1H+Qs0vFTc53jGASKIZDJZD5bTPmwZVOpVDVNHzR6v7kUsIjACnuhjCjnLHR1hM0Qu/Zys/L028zsm+ONdMrn6eBKhIflOx358UDk29Qb5MF6qlBbX3/guPHP9vQ4C2Ms1Fa+c3I1brEvn2umzW/zeu75yVV5C3ACAhCAAAQgAAEIQKCuCCj66jzHHf6upg+uD2NTidsbVc5pEmzdUH8lX9vKWXSMzu2R73ypx9Vmt+reXmr9EuodJ9FvWgn18lV5Qn34v3wnK3j8kQq2VXJTc+fOfY3eN1EsBPCE3jsPluxYPBWdCVi6BhGwShjDeAQs33+Z2db1I3PdyR8ywZS9pG2e7TTZUFHA0Xne3xdMIywoYD2fyYSeahiVowqWTqSA9dXHTp34wr0/+ZaWdDwqqr5jFwIQgAAEIAABCECgeghoGtQeiiT5oGOPl4S1pxvWD0oI2D9s+RDl/q78QTcXKBeF6GAkJj27YsWKfynQrtNTc+bM+ZEM/qNDozcpZ9iXHdqraVO6Zj8XUQdXRGQ3ErOa6tiwZs0al9GTTCEsYaTiEbAGHT3V2N7fmetPWGY8+xPz4fv+VzF5MatG2wn6CUhKHiKRu+3vj13AErHOEq67yKpc8qujDsn0+e9+8aUX5urT9ZWRNVSnhvXL4Sx1/V/rtPt02zGBiRMnnnPFFVfw4e2YK+YgAAEIQCA3AYlXZ0t8GZ/7bElHH8yXPD2XNQkBn8x1vNRjmrr4Nd1Up/PVl2D2DvU332mOQ2BMAlox81VaMfN9rq8jXZvbqm36oFYu3XtMYEUUENPkBfIU4X9cReMUsBQc4x+gjn/ZZPwvm+tP7DXXHd8pEatTxzuM9Tr0rNeK8PG9TtOo1x+694WKgBposyIt5W/E2jHFqWxQJu4PpYBVhbbP/PKEPTy/u8X3vRkmm23Rx7EYKYn9QB4wf4YvHv29WZdfSirUs+ppRh824u8HS+iyQaBsAtu2bXM9jaNsnzAAAQhAAAK1SUDfX6x+iGt13LulYe2p7VPlw5Fhy4co99LkyZO/k6/c+eefv293d3eQ74sNAiUT0IqZl6pyFHmzvxd26m3Jzruv6Gz6YOCa7qv4EbeEMYpXwNrJYT9IWn6IBJlDBg772cGzAz8aZIzp1+O6E3qMlagVTFuzyr00IHBtF7o8HWue2GFmryr/QrBJiMAKsbpgAgQsa8Tfwfbp3x61W2qzBDlrJExlZ/hZrcQY9E8Clb5vtGjt3xa/f+sEXQXaBv/d0ez2X5biFvN2OMQeBCAAAQhAAAIQgECCCEhAepvcOdSVS7r5fKG5uXllWHsSry4KWzZMObW/5PLLL9+ar2xPT0+w+qC+QrNBoDQCmnL7CkUtvl/XbmkGCtTS9Rta/C1gptKnnApYisgkAquEEUyQgBXGe3+cxKvgg+fQ4cijIaEr0Lu2bTHm+uOVGD4QtyRoBbmsBqK5AtErpdeB8JXtNB++v3CixWyjRJn+MA5FWUbizRhbNoTINYaJck/73thiX9uDx0zp7TMzbLq/ZSBqbCBqSoKUlUhl7Axr/BZ/U3bSgCw18u/j8B9LrSNYrqPUhwAEIAABCEAAAhCoWwK6YV7g8kZctr69ePHi3jBAtyfBdrkKe4/Es8WF2tbNscucUYWa4lyNEtDUwUvVtSiirx7Uypm/rTZs+hsy1eXfkKamJgSsEi6CKhOwQvTQN5pC5gcrCB42nIh9QP2QPDKgkOjM9SdsHRS2AoFrSOgKxC2JMX5Dp0l5m03e2eQhfHBTpGUsMwMCUMzKTsraDZf84vWvympaX9YqqXx2e9SUUdSUPyhQbevumzLcl2FRSkcGfEecGmbDDgQgAAEIQAACEICAcwKtra0HSdBxltBcN7JZ5Z9qD+uobnpdR19dI/Hs+XztX3jhheO3bt16isub7Xxtcbw2Ceg98w96z3wwimtI751vVik1pxFYe+21V/kzx6oUZDlu156AFYaG709UsVdKxBpM8j204uCAoKLIq/jFK4k7gfhTeLMSieKWf9LpzEODXg6pg0OK2pBnQ68L94WzEIAABCAAAQhAAAIQiIKAbsTn60bcWSSJbN3a3t7+tzC+Lly4cEZvb+/7w5QNUyYQz1Tua4XKbtmyJYj2mlCoDOcgUIiA3jP/4fI9M6KtLtn97xGvq2nXmYCl93G3FmDoqabOJ8VXZ3/Ik9KhGvJjT3PLuwt+8CiYaUyRq4Z40BUIQAACEIAABCAAAQgURUA3ieNU4eyiKo1RWBEkS8YoMny6r6/vfN2wNw4fKH/nB1r58KlCZnRzzPTBQoA4V5CA8sUdo2v2PQULlXhS1+YSXb+x5+op0X1nApbaZ/pgiYOAgFUiuIpU27Alr0D1lfuPn6wwrd0q4geNQAACEIAABCAAAQhAoAoJdHV1BUmop7pyXTfgTyn6alUYe4q+mqK2zw1TNmwZ2ftqobIS7IL7u3cVKsM5CBQioGvsS4XOl3pO751tjY2Ny0utH3c9RaW5FLCYPljigCJglQiuItWy/XkFrA3ZdN5zFfGNRiAAAQhAAAIQgAAEIJB8Agscu7hMN+KhcmRoJcBzJQbsyAVbpiNq954VK1Y8XMjMunXrjlOb+xQqwzkI5COgBQdO1rmT8p0v8/gNS5YsqebII2cClt6j1cyhzMugvOr1mQOrPGaVq+3lnyIYrOhXOUdoCQIQgEDtEtCvgX39/f2Pl9ND3VSsK6d+xHWfkv2Sow/0JevZiP3DPAQgAIFICMyZM+cN+hv2BlfGgwiSiRMnXhPGnqZhNart88OUDVtG7S8aq6yiRJg+OBYkzucloOsnkugrNeinUqmv5224Ok44E7DUXSKwShxzBKwSwVWkWtafka+drNVqfyNX9MtXkOMQgAAEIFCQwDe+8Y1AoHlNwUJVfFK5JuZUsfu4DgEIQKBkAhJ8FkhEKrl+jorfu+KKK0LdeKrtYOpi3u/yOWwXPCR7f1i+fPntBQvppNpEwBoLEudzEpDo+l5dP2/MebLMg7p+f7ps2bL/K9NM3NWdCVjiQQRWiaPJFMISwVWkWiBS5d3cfSDmbYITEIAABCAAAQhAAAIQqEICCxYsmKqbcWer/wUIFEESOnm72r7IJTbd8I4ZfTV//vxXqc3DXLaLrfogEORO0zX7xah6K9tfi8p2pezqPVhyNHsOHxGwckAJcwgBKwyl+MrkF7BYgTC+UaFlCEAAAhCAAAQgAIFEE9DU8HPkYLACoavtN4ogeSSMMeUROkU37M4ie3Xj3CF73x+r7XQ6TfTVWJA4n5PAmjVrPqwTR+Q8WeZBXb8PK3fbL8o0E2t1CXxNeg9OcuhEqEhOh+3VjCkErCQPZQGRyrd+fnEryX3CNwhAAAIQgAAEIAABCERIYHs0SavLJjzPiy36Sv34uqaD94foz+khylAEAjsRCPK1SWRq2+mg2xcFV85021Q01rQ4wt4uLevvCRFYJQJFwCoRXEWqFRCprCk0vbAi3tEIBCAAAQhAAAIQgAAEEkdAN5vvkFMvc+WYbu5fnDZt2sow9ubNm3ekIjVODVM2TBm1vb6hoeFbY5VVuwer3dePVY7zEMhB4OO6dg7OcbzsQ7p+n5o+ffoPyjYUswHxcZb/KuiK7CFglTimJHEvEVxFqvlmirnx7VPMR27bNLo9XfREYI2GwuuqI6APtV/pSxnh7lUwcplMJqWVaViNrgrGChchAAEI1DsBfV4tcMzg24rq6gljU5+XTnNfqc2l2raM1bb6TPTVWJA4vwuBCy+8cPzWrVsv3eWEuwNf03sn685cbJacCli6B2IKYYlD2WCs8fWfLbE+1aIm4G0KhKonRjbzmV+esIffv3XiyGPsJ4tAU8ZzuuRNsnrn1Jv+JUuW8AuEU6TRGAumY3R1dUVjHKsQgAAEIAABRwQ0HeoQ/dB7miNzRjea2aampvYw9lpbW/eXkPSBMGXDlFHbvePHj18cpqz6PDtMOcpAYCQBiVcLde1MG3nM1b6u3+cUfXWNK3sx23EqYOnvBPc/JQ6oIrCCJRzdhsSV6AvVchHIDEwV3EnA8vzulkyushxLDoF9DpKq/nBy/METCEBgmIBubibohmDy8IEK7nR3dzv78UFfOPc8//zz962g+8NNbdu2LaN8LC8MH2AHAhCAQEII6G/jfLni8sf526666qq/humebkrPV/uNYcqGLHPtN77xjTGjn7eLdkwfDAmVYoMEdN3spuv10xHy+EbYyMUIfXBiWpycCljKgUUEVokjIwHLX6e6TgekRF+olpOAnTH6cCYdiFoE+IzmkqDXL7UdcXNfgvzBFQhAYGcCZ0lIumrnQ9X3SjdKN6sfcTn+dzV8ULGNa2WuS1TH5c1dsS6MVf6x5cuX/89YhTgPAQgkk8D26VBn6WbTmYOytSSMsYsvvnjyhg0bzg1TNkyZIPKrsbHx62HKqgzTB0OCotgOArq2L9KrPXcccbq3ecKECUudWozXmFO9ZL/99kPAKnE8gwisv0kM+YcS61MtagJ+NphCuNOmz7MWh5/LO9nmhQsCwXuKDQIQgAAERhPQl+XP6TF+9PGkvNYN443yBQErKQOCHxAokoBE/Q/pb8weRVbLW1x/E56WqH37ihUr8pYZOhGIV2p7t6HXDp5/pDQLfwlpBwErJCiKDRJYuHDh3r29vRfomo0EiSKMll955ZUbIjEeg1FxmuqqWf1d2ajItLQre/VmRwKWuVOPd9Vbx6umv36u1QaDqKxo/thUDZcEO6o/SsF7ig0CEIAABCAAAQhAoIIEdJPpOnn7DYocnaKpVgV7MXHixJRyCZ1fsFDxJxeFqcL0wTCUKDOagMSrL+j9Mmn0cRevdS/UK9thowddNFkJG84isMSG6KsyRswzKe+2MupTNWoC1uwSgaV1N3c9FrUf2A9NwPq8p0LDoiAEIAABCEAAAhBwQEBC03G6MXydA1PDJmTvMj02jPXYsmXLiyrj7Pu5BID7lGfwoWFHCu8QfVWYD2dHEZDo+Uodah112OXL63T9rnVpMAG2nAlYen+TwL2MAfXMh+97UstrPFCGDapGSmDXD0Pf5orKitQJjIckoD9Iq18366D7QxanGAQgAAEIQAACEICAAwISkILk7bWyhYq+2t5ZVh+slVGvUD/0XvmqHsFMrCi2jIwWc/1G4YNzm7rHcyZgiT0CVhkjNHjhet6/mUxmVRl2qBoVAX/XCCwtq9LCBMKogJdn1xr7xdn25uAPNxsEIAABCEAAAhCAQAUIBPl8enp6akXIeUJ5t25VBMuY5BR1drgW9HAadTZmoyqgm/kWRfE8FaasozL76abfkakBMxfJ/4+7NBjWlvrxZ+VUe2fY8q7LzZkz562yGVn6IF0bWdlfJb6uXS/F3t/kz8r29vYVei73AnImYKkjTCEsZTS31xkUsD5y3x3muuPv0bFZZdiiajQEJpiVp+1pZq8aeaHvsjJhNE1jtUgCTzSbyTcVWYfiEIAABCAAAQhAAAJlEJB4FYgRTWWYSExV3Wh/tYib7Y/E4fj26J2D42jbUZt7qg9Rrb43lotbxioQ1XklDvfWrFnztajsB3bFNVhp+JAo2yjC9iHy5+TW1tbDVeeCIurlKuoyiTsRWLkIhzzmDZcb3/xRyekvDL9mJzkEercOz6n/7H0n7q034rjkOIcnAwSs3dbU1PD+tln3sqIElwQEIAABCEAAAhCoIAEJPlHm86lYT9SPNWrsv8I0qPsBq+irD4UpSxkIBAS6urrO1tOR9UZD75N/lYh1UKn9VjTZBL3fJpRaf3Q9vc9HBqaMPs3rMQjsELBm/3yNsSYQsbgBHwNa5U8Hqw4ObtZ0D4tZQ8d4jpmA1ZKQntf67yc8/ETMntA8BCAAAQhAAAIQqEcCw9+Vq7zzV2jqYH+YPuiG/ESVOzBMWcpA4OKLL54sEeaLdUrCqu+vL6PvLqcPBlFqRGCVMRg7BKzAyEfvv1234v+kmc09ZdikqmsCI/Jg+X62Vj6gXVOKyZ7NKO/V2V95y2+vj8kBmoUABCAAAQhAAAIQqHICisrYuPvuu4+d+Gp7PxVV8pEq7zLuV5DAhg0bPqPm9q1gk4lqSu+v8aU65Hmes+mDgQ+yh4BV6mCo3mAOrJEGzrz/p+amN59mMtmbJA8iloxkE9e+nx2OuspmgxUIy81BF1dHaqtdCVcv2pR/9pff8uhPaqtnleuNfoEYr7DcpMyTr1zHq7Cl559/PlWFbuMyBCAAAQhAoFoILFu0aNHmMM4qaX2z8n6dHqYsZSCg79oH6Dv3JyBRGgGxcxqBlclkmEJY2lAM1NpVwAoOf/i++8yP33O42fjSVySWtEov0cJ3bLER0EofQ21LNNEKhAhYQzzietYb4ru2YeL5X37zL5+Py4caafcY9WN1jfSlprvR3x9qRkNNM6BzEIAABCAAgSgIKDqkV3a/Gda2xKtgFbndw5anXH0TkADznyJADuXSLwOnApbcOEJTgBP3w7CiOl9eOqLcNXXtvUF9DSNerJ80adLvL7/88q25Le04mlvACs7/40+CXwDmm5tOuNxkAxHLnqWILNeDt8MT9goRGBawNIVweL9QBc65JyDxcJPxzI2e7y370qzf/tF9C1iEAAQgAAEIQAACEKhDAjco99XasP2W4PUR3RiGLU65Oiag6KtjdK18oI4RuOi6aw3kq4rCcuFX4m3o2rs0bF83bdq0ca625cuXf79Qx/ILWEO1Pnz/09q92Kw8/bOm79nDTTbzRuN7rzXWP0jHJaZomqFvnM4LHWqa5+0EfH9YtNIHVgsfWBFfGdZskFjVqUi3Dmu8vxuTfUwC7sMvm2Ifn3v0I4ShRIwf8xCAAAQgAAEIQKCOCARK1NfC9vfCCy/cc8uWLe8IW55ydU/g6yLAbKryLgPXAlZ53tRobWkcu6lrN0h0/ZME/T/k6+bYAtZQzdk3BzJhYGhXY/fMHGeeSR9grCcxK9OilQxbJGrNkMilZ62gZyV0+f4eQ6Z4LpbAjlUIJRgOi1nFWqF88NfbbgqEKV2jnVo8sENHOo3nd3h+qsOz2c7ddt/rmU+95o4xQxdhCQEIQAACEIAABCAAgXIJ6MfpH+tm7c9h7aTT6a1NTU2HhS0flOvr6ztZT98upg5lq5+Aglner2lhb6r+nsTeAwSsCg2BRKxGNTVbj101p+0+hBewCjk9695g1cK/bH/kLnnLuyeYDVtaTLa/RdOw9KzIrZFCl3I7SeQKVDe2XQj4zeb6U/fxP7rq+c/ce9T+JHHfBdDAAWvNFqVr67C+kTBlOqVWDQhUnu93+A2NHc2Z8c+0zbp3S+7aHIUABCAAAQhAAAIQgEBlCeiG7avFtLh48eIgX5ZmCITfFNHwLDM4wvOqhZJBov/e3t4g9xVbmQQkAiJglcmwmOoS9Q8uVN6NgFWohaFz776lW7v/t/0xdHTn5+tPnWhMzwEDAlcmO2MnoWvHdMUpO1eqk1d224zP//LolES+QJWsu21AnPLtGmslRvkSqYzfab3g2etUtF9H0/jUM23HPrSp7sDQYQhAoBQCt2gJ46dKqVhuHX0JOks2gl+Wyt70Af9ZPX5ftqESDKgf20qoRhUIQAACENiZwK9WrFjxwM6HeAWB8gko6u4CiZYHlW8JCyKAgFXBy0DXbcEpr5UTsMJ0+oyBqVv/q6LBI/f24/dMNltfPMCkNV0xmJo4EMkV5OIaeGgKoyK7jJmcu3IVH82almzWSykfUxV3IrfrmtYncdPvHJjOJ4FKopQip/Ta8zqspvVl7YSO/zzx/vW5a3MUAhCAQHEENFXjGdUIHhXf9Cv4W1z9Ci4R7jft7e0/r3gnymiwoaHhKIluXhkmIq2qRKMbIm0A4xCAQFQEnqrE3xb9/Q7uOZocdmKRQ1uYgsAAAa36to9+aPocONwQ0N+Wqa6+u7nxqL6tJEvACjMWg6sjPqGiwSP39sOZu5vNysHlabpidrvQNbB6X5BLKvjg0bPvK9qrijYv22JtJlV1641Yu00S6hr5HUztU9SUUQRVIFLZzmxDQ4fXZDq/fMxvXqyikcBVCEAAAhAokcDSpUvz/0BVok2qQQACENAPE0XlhCqF2Pz58/dT/qm/ubqR1U3xn7Xa1i2KwCrFHepAIC8B/RizUCfrc9ZSXiplnSACqyx8bitXn4AVpv//dG/wC2rw+GPe4jedsMdADq50kGReied95eCygbCVHdw3vnJNmQl561f6hPzLZq0isBIlYfVKiFqjZP1BrqkOJUfvtL7X4Sspun5g7xyX9TvaZj3yQqVR0R4EIAABCEAAAhCAAARcEpB4tVDiVbMrm7L1VYlYifpi76pv2ImdAHml3Q4BApZbnmVZq00BKwySDw9MSQumpT2et/h1J081Xu8MzdpT4nkJXFnl5QoSzw/n4xqI6BqXt77LE75psSZbsQgsRU31afbpmiBSaiBiyg5O6/MlUKUa/I6mVHNn2/EPPOeyi9iCAAQgAAEIQAACEIBA0ghcdNFFEzdu3Njqyi8JV2unT59+oyt72IEABKIhoMjLSf39/c6E62i8rC+r9StghRnnM+8OprYFj8fyFv+vmXuZfkVtDaysGAhcQS6u7dMUA6HLN8GqgeVf9LKrfGZuIrCs7dfvPV0SqBQ5pWl9SoI+EDUlsSoVrNg3vqnjP4558Dl+Fco76pyAAAQgAAEIQAACEKgTAps3bz5bXd3TYXevbGtr63NoD1MQgEAEBFiBMAKoZZpEwCoToPnQvcEUueDxaE5TQRb9G07b26S6W0wwXVG5rAamKxrl6BoWujRd0R8rIaSvHFhG+lLOVoYPSnRKq0yXbHdqXwKV3+krKbqnaX2epvVpml9H04nvfrbNthXMBv8lKXFsEIAABCAAAQhAAAIQqGcCEpq8rq6uC1wx0PfzYNXs5a7sxWFHfQh+4L+sUm1rNsi5autIV+3J/1tka5Ure8XYUdukVykGWMxlde0xfTDmMRjdPALWaCKuXw/ObQ+m2gWPR3KaD0Sum2fta3qCxPNpTVVU5JbVaopBXq4hocs3e0uM8qUrdWpa30DklC+Bym7PO6VTHd64ps7G405bO5Y4lc+NnL5xEAIQgEAdEFi4cGFZkbInnnhievbs2ZkkotLKh43Nzc0lr/w3depUn0iBJI4sPkEAApUgsHbt2n/WTezBDttarqTzGx3aq7gp8dik5PNLKtXwnDlzTlFbzgQs+f/rSvpfKU4JaWezRLq0K180VsHCay5X/izWNQSsYolFXB4BK2LAocxL5PL9tueWPvw3Y/qN9WzWZKRpeZrbl1XYlaKzAhksc+i+LS9pX38QlJdKq/kF4pUErQ6d7WhoaO48acZh66ydXTCyKpQ/FIJAhQjoA+6Xu+222zsr1BzNlEGgr68v1d3dHeQNrLlN+Q1aenp6nimnY3fdddeXVP/z5diIsO4q9W9WqfYVebBGdRU1zAYBCECg/ghoCtEnHfa6z/O8bzi0hykIJIpAQ0PDrGXLluUO2ijBU4mX16naGSVUdVUFAcsVSUd2ELAcgSxkRuqUbX9g3t5+apuiq2yLZKmB6CpfUVZ2YPVD07L013/dX+UaAzuZgWmCKhU8D88ZVNTV4KFjdfBYRWnp5dDmm/50j1n11OOZVasv0fTBgdxWErg8CVxZPZuOjG3onOA1dpx4YP+zdozpg0NWeYZABQhkFi1atLkC7dBEmQSCKRQSsMq0QnUIQAACEIBA9RBQBOsJ+n6u795uNv1wd1N7e3vwowAbBCBQBQQkYE+tAjfrykUErDKHOxCnrnn07L16e7wZvtX0P60WqDxTg9P/tk8DXPLrM4NfrpvMwOSSIdlJzwP/Dz6P6Yb1NW3QrlWlN+Yt6ytH1sAKiUEi+cD8SJUrbbozaXPHapu+ffUlwQenhC3bKZvBdMRA5JLY5XU0eqZz5kGXSeRSzBcbBCAAAQhAAAIQgAAE6peAy+grZf+wl9cvSnoOgaokQARWwoYNAWuMAbnuoQVTt9itLZ4SsGdskIDdtHgSqLLGtmgK34wlD3xMYlGwyqDUqZ0knyFhauh5jIbGPB2ITUFy9vI2iWsN8vNAWTlQ+3oKHtv/9bOmV5rXHasv7V/15CWd+pQdWKEwyLmVtb5WKBx8NibVceohlz2PyDWAjn8gAAEIQAACEIAABGqMwNy5c1+uH6rf46pb+t780+XLl//JlT3sQAACFSGAgFURzOEbqWsBa+nj8/Yw3VtbTEbT+oaSptvBCCqJNgNi1eb05nEBzpHBU9J4tA3KP0MC0MChKP9RritFSXUNyk1RNjTQo2Aq48s0ffFlgxKX/tX/meCf4IDScK1a/YW+VU9eGohqAxFceu40QV6urFY/bFROrqZUx6zpbayyEeBigwAEIAABCEAAAhCoKgKaOvQJOVzyAhg5OrsoxzEOQQACySaAgJWw8alZAeuaRz+2e093aobv9UuICvJODU3r0/Q6X/vWtmQ3b50wOB5DwszQc6DTDCg1yRkurTKo6X6KwEqKX36TPAlWZNmxKsvQjMV+ZZzvD0SuS3t0fkDkEk89a9VERXUZk+0IVlBsaBrf+dYZnwuW4WWDAAQgAAEIQAACEIBAIggo91Vw03qmIrBc+fOgVh6835Ux7ECgEAEtFNCu87cXKjPynK7zD+jx0ZHH2B8mgIA1jCIZOw3JcKM4L258cOGUDd6mllQ6yDuVaclKoAqm8ykdVYtW5Qum9LVs7c5qyU0pKgPhUkMfPnoe3h3aKa7t2EorP5Vt8LpMejD+KzY/imhYfwiD6LVDtz/0JBlr+IuAllPc1i2R65JtWmRR0WWBwBVEc3mdQdL5IPm8p8TzzalmJZ7/bE2ufKb+skEAAhCAAAQgAAEIJIyAvq/Ol0vjXbmlH3C/4soWdiAwFoHtU1VDT1fVdNnX77hHG8t6fZ3Xe3cv2CRrzBMnYH37z2dP7lnvKUKqv8XP2hl2IO/U9giqIO+UclBtyGycHMzpywT/DOhQQ/FSIwSqZHEu35us6fAaGroy6XT5thJkQXqWvhz4h2nkDht0Kzs0pNIe0yatxPO3r740WPpM4tZAFJqErhGJ540noWtcxymHfGZjgrqFKxCAAAQgAAEIQAACVUhAq+6O6+rqWuDwpvUv06dP/0kVosBlCNQ9gebm5uNTqZTLqcQ1x3Tr1q2/UKeOrFTHKipgXf/YRRO3bX2hJWMlUGUzyjtltVqfEqNrOp/ECa3UZ1u2vZjebUfng4id4NXAPwPPQ3s7ytTJXqPpOGnGYc/fsfoPaVGp6LjFTtj3g6merxh8BFfA4FUw+G/WZPwtRvm4tuhEkI9LAlfwPBjVFSSgt01ex6RJpvPYqW2bdI4NAhCAAAQgAAEIQAACOQmsXbv2DIlX++Q8WcJB3fxeLlGseqZQlNBHqkCgVgksXryY+8cxBldTrjMOBf8xWjPGmRCy/LfnTrAZf0Zfpq/Fk0ClxIctCrkbEKgkVClyyp+xactzewx4pNXuBp+3y1EjppWN6XEdFhDH/vlvuOZZPfuacrdW+o0EP7aRBCTqTdLrV21/6GlEVF5f1mx4SRPBn7w0+APUqWmmgdClfFyDebkkoHZ4XrazYUJDx6x92gIhjA0CEIAABCAAAQhAoM4I6CbMajrVJ1x1W9/d1zU2Nl7vyh52IAABCNQ7gaIELIlUe2X6e96gpOivlfR0gCQCCVQSUyRQ9ff27DkEM+trap+2YSVOAtV2qWqoCM9FEBC9zkC82l4lEF8QsIrgt6OoP0X7h+tiPDw4tiO6T0nndclmNgaJ5y8JpiIORHCphKK57DMSXx8f1zj+4Tcf9Pm1QT02CEAAAhCAAAQgAIHaI9Da2vou3b8EUf9ONtn6piI4ep0YwwgEIAABCIwdgRWs5rdtm/mYMhPNkUg1cOMfRLfstA1HUO10lBeOCFg/WLlveAsELLaICOhSDqaw6uH/w2ATg+Jrd/+2YJri08b630l547/11oM//2xELmAWAhCAAAQgAAEIQCAGAhKcLnLY7OaJEycuc2gPUxCAAATqnkDeCCxFWzX29/Z+euu27OekVynRNltcBHwbJC8f2oIE5qMExKFTPEdKQFLWwUL/xUxm22W3P3Xp4r3Gpy49enpbkGCeDQIQgAAEIAABCECgignMmTPnDRKw3uywCyuuvPLKDQ7tYQoCEIBA3RPIKWAt+9U5/9Df1/tfEkpejVaSgGvEeiMErIH8TQlwqn5dkHzYaLL+J17cmnnvqtVtHz3t0LYH6pdGeT3XF8WJ8+fPD3KXsSWcwLp161IJdxH3IAABCEAAAuUQcBZ9FeSv1eplV5TjDHUhAAEIQGBXArsIWO0PnX1cJt3/MwlXgwnXd63DkQoT8PwdEVjBqnpkFKvwAORpLojIsiZ91x1PXfK+Uw/54q15inG4MIE3pNPpPxUuwlkIQAACEIAABCAQHQHlvjook8n8i6sW9APdd5X7amQKEFemsQMBCECgrgl4I3u/9MGPHZvOpO9UhAni1Ugwce8Prpo36MXO0Vhxe1b37Stn1ngtqvmjVU9d8q66hwEACEAAAhCAAAQgUIUEJDhdILedRRqnUqmvViEGXIYABCCQeALDAta3HjhnTz/jr1Tk1cTEe11nDlq/YXgKoWcbh/frDENiuxtMKZSQdf3dT3/xwMQ6iWMQgAAEIAABCEAAArsQuOCCC3aXgHXOLidKP3Bre3v7H0uvTk0IQAACEMhHYFjA6jHpb2lKVEu+ghyPj4DXlBoWrU5+2eeeM8b2xecNLeckoCm3/dne7+oLkM15noMQgAAEIAABCEAAAokj0N3d3arvb5McOrbIoS1MQQACEIDACAIDObCCvFfKQ/NPI46zmxACynnVM/foq18YckdJIf1VT16yRlE/Lxs6xnNCCPj+cauevuyf5c0PEuIRbkAg6QT6k+4g/pVPQLll9tHN4QHlW4rfQjab3dOlF/pMP3zu3Ln6SC9+E9O/XX312mOuvAAAHZ9JREFUju8HxVugBgQg0NbW1rRmzZqFDkn8ZsWKFb9waA9TEIAABCAwgsCAgKW8V5eNOMZukghYP1cCyCAiCwErSeM05Iuf/YJuKv4nEBqHDvEMAQjkJJDZb7/9hsX5nCU4WNUEFixYcGB/f/81Sow8q6o7EqHz+ry4Vo+SWvA872xVvKakylSCAAQGCHR1dX1QO9Md4iD6yiFMTEEAAhAYTcBb/ttzD1Deq9NGn+B1Qgj4dnj64AiPch0bcZrd2Aj45si7/vZvx8TWPg1DoEoISOT9u375zlaJu7hZJIEgqkHi1SqJM4hXRbKjOAQgUFECn3TY2ur999//hw7tYQoCEIAABEYR8NJ9PW8fdYyXSSIwcgXCYb9yilrDZ9mJl4CfzvCeincIaL0KCEjYuLUK3MTFEgkoquEfNcavKLE61SAAAQhETkDTm0/T36lXu2pIP8xczg8zrmhiBwIQgEBuAp5vLNFXudkk46hvdo228nIcS4a3eCECmgzCe4orAQJjEGhoaPjuGEU4XcUEdFN4UhW7j+sQgEAdEND0ZmfRVxKvnps+ffp1dYCNLkIAAhCIlUCDNeaQ0rIvxOp3/TRu/V0FLBtEYDFqSb0ItJrnwUn1Db8gkBACP1u6dOkDCfEFNyIgoJu5N0rEisAyJiEAAQiUT2DevHlHagGrU8q3NGzhm4q+6hl+VeM7+hu/57nnnvuVSnVTnydHuGxL/r9N/u/u0mYRttZqAY4riyhPUQhAYASBBn293HfEa3YTRsD3vF0ELGu9Dt+QOiZhQzXsjrVmr3v8toZZti09fJAdCEBggIC+NK7XF9HzwVG7BHQTN05TCJ1Ny6ldUvQMAhCIi4Ciry5y2PbWVCq11KG9xJvS5/hucvLixDuax0H5/2adCh5xbI+rUQSsOMjTZk0Q8NSLvWuiJzXaicbsrtMFG5tNrpUJa5RA9XVLQQc289fGqdXnOR5DIFoCEq961cLp+uXxqWhbwnqcBJ599tnX6uagMU4faBsCEIBAPgLKfbW/zn0g3/lij2tF0G8tW7ZsfbH1KA8BCEAAAsUT8IzvByIWW0IJNI3fVcCaNb3tBUX5bEuoy7glAk2e4X3FlQCBEQQkXq3Tl/yZy5cvv3vEYXZrkIAiG95Yg92iSxCAQI0QyGaz/+pKZNdnW1q2vl4jaOgGBCAAgcQT4CY7yUNkzdazXnfthtwuWqKwcoPhKAQgkCACQdSVHl+fMGHCEfqF+sEEuYYr0RF4Q3SmsQwBCECgdAIXX3zxZNWeW7qFnWtKvPq+ooqf2fkoryAAAQhAICoCDVEZxq4LAkGy9nzbQHL3l+c7y3EIREFAQsRm2X0yCtvVZFNfWA+Sv86mSInrGtnrlt2BrNd6PZz9eujYdj4Fzw/Vy1UnqJ/r/NCx4PxQvZHHgsPBuWDLdX7oWHB+e72g/At6BH26T+dv1Zf7jdpnqxMCGnMisOpkrOkmBKqNwIYNGz6uv1FB/iYnm1bUXeTEEEYgAIHEEJgzZ84afafdJzEOxefIs/oOPyO+5nO3jICVm0syjvq7Th8c4VgBcWtEKXYh4JBAe3v7D2UueNT1Nnfu3D/rC/ArXEGQrbP1AXGHK3vYgUBcBC644ILdt27dyo8rcQ0A7UIAAnkJaIGJBi0wcUHeAsWf6NOU6cVaza74mmXU0HT8q/V97KYyTFAVAhAoQEDiVYO+m6OTGJNIBol0qsD1VFenFIRRQKQKorOGAyPqigudhQAEIACBZBKQeHW0PLPJ9A6vIACBeiawZs2a96n/Bzhk0KSb3IqvZKccXrc57AOmIAABCFQVAXJgJXm4fK+AgFUwOivJvcI3CEAAAhCoUQL61ZLpgzU6tnQLAjVA4KIa6ANdgAAEIFDXBBCwkjz8Y0ZgJdl5fIMABCAAgTokQAL3Ohx0ugyBpBNobW2dKR+PSrqf+AcBCEAAAoUJIGAV5hPvWS9/lJVn/c54naN1CEAAAhCAwM4ENJ2GCKydkfAKAhBIAAFNuyP6KgHjgAsQgAAEyiWAgFUuwSjr+415pxA2eKm856J0CdsQgAAEIACBXATOO++86ToePNggAAEIJIaAkqy/UuL6OxLjEI5AAAIQgEDJBBCwSkYXfcVxe2TzRlnNelnbBmvslui9oAUIQAACEIDA2AT6+vqIvhobEyUgAIHKE3i1mmRxicpzp0UIQAACzgmwCqFzpG4MKhHuxnNe+Z3NY1gLorBeNUYZTkMAAhCAAAQqQeAZLe/+r5VoKK42FMVxlh6vc9W+eF0uW8+UYi+VSj1YSj3qQAACEIAABCAAgWolULcClqKXNpsgj5RvO/SbTIeeO/W6wzOeop4y6zO+eSjeQfVDTBEcKIOAFe9A0ToEIAABCIjA1Vdf/Ts9BY+a3TQV6Xh1zpmApbw8K1esWPFwzQKjYxCAAAQgAAEIQMAhgdoUsKzZqkjhDmv8Tt9KoPJNhyKaJFaZDs9PdXrNqY65R1+9MR/HJb/++KuM35fvdIWOy++xtzBlxrZCCQhAAAIQgAAEIAABCEAAAhCAAAQgkGACVSdgSYjqVvh+p547fAlU3naBKuvZzsas6chMGt85/8hl68tibvtbyqrvoLJv8q9AOGw+WKUwO/yKHQhAAAIQgAAEIAABCEAAAlET6FID7426kSH7uu/7qu7/3jL0utxnTd9eqgjYa8u1U0r9pqam7lLqUQcCEBgkkCgBS9P6ekZO67PBtL4BkUZT+xpSnQ0Z2/HxN337pcgHL2tiF7CCaLGx+xlEaUnqYoMABCAAAQhAAAIQgAAEIFAZAr2VnP48Z86cDS67JfGqs5L+u/QdWxCodwKxClhaDmS95JcbPa/hJ6nGht9rWt8LiRgQ30rAilcY0i8DYwpY1qY6fZNOBDKcgAAEIAABCEAAAhCAAAQgAAEIQAACURGIT8Cy9nea/vcv84679m9Rda5kuzbbErN+ZaymQ47lv/XSHSYzVinOQwACEIAABCAAAQhAAAIQgAAEIACB6iYQj4Bl7bMTx9uTz3rdtU7DQV0NhZ+ACKxUQ0PnWP1pmNDQkdlIBNZYnDhfPAGttPVKRQGOL75mfdRQ6Pk4lz1VbodDW1tbn3dps1ZsifX/aXU78kXUyoDSDwhAAAIQgAAEIAABCJRIIBYBS1MHL06qeDXA0SoHVrwzCM3umUljRmDN2qdty6rVl25QUsPdSxx/qkEgH4GVEg5ene8kx90S0Ht4iR5ujdaINQmp+6orCFg1Mp50AwIQgAAEIAABCEAAAqUSiEfAmjThllIdrkQ96/szYr2VtObF2W+6YlvIvgZCFwJWSFgUgwAEqorAU+3t7c9Vlcc4CwEIQAACSSPwM0U6H5g0p0r1p7m5OZEzWErtD/UgkDQC+lH5w/qb0Zw0vyrtjzj0VrrNMO3FIWA9M//IZevDOBdHmWse/djuW7uzk+Joe6hNrb44ZvTVUFk9B2WJlBkBhF0IQKA2COjLw69royf0AgIQgAAE4iKwfRr6M3G1T7sQgEB1EdAKlXdVl8f15a1X8e5au7HibRbRYN82TR+Me7NjJ3Df4aJfjNi1oxp7EIAABJJPAAEr+WOEhxCAAAQgAAEIQAACEKgIgcoLWBXpVumN9HtJELCKEqUQsEofbmpCAAIJJpBKpR5IsHu4BgEIQAACEIAABCAAAQhUkAAC1ijYNpuNPwLL94oQpbwxVysc1UVeQgACEKgGAltnzpz5h2pwFB8hAAEIQAACEIAABCAAgegJIGCNZuzb+AUsW0wEVjFi1+jO8hoCEIBAYgn8Zvbs2ZnEeodjEIAABCAAAQhAAAIQgEBFCSBgjcZt459CaP3wUVXWpouI1hrdWV5DAAIQSCYBz/PIf5XMocErCEAAAhCAAAQgAAEIxEIAAWs0dj9+Acs0hl+FcFLTnkwhHD2GvIYABKqeQDabJf9V1Y8iHYAABCAAAQhAAAIQgIA7AghYo1laM2P0oUq+ttb4e004ILQo9aaWT2wzxr5QSR9pCwIQgEDUBBobGx+Mug3sQwACEIAABCAAAQhAAALVQwABa/RYxRyB5Rv73Owj2vpGuzXGa6YRjgGI0xCAQFUR+MuSJUterCqPcRYCEIAABCAAAQhAAAIQiJQAAtYIvMt/e+5evvHHjThU+V2/mATu292zBgGr8iNFixCAQHQEyH8VHVssQwACEIAABCAAAQhAoCoJIGCNGLZsXyYBKxCGz3817HpRqxYO12IHAhCAQCIJWGvJf5XIkcEpCEAAAhCAAAQgAAEIxEegIb6mk9eyb9Mtxo/XL+XAKjqayhrbqcixeB2ndQhAAAKOCPi+TwSWI5aYgUAuAm1tbV5XV9eeuc5xDAIVJrDx6quv7q9wmzQHAQhAAAJVSgABa+TAxZz/asAVv3gBS0ncJXohYI0cSvYhAIHqJKDoqxenTZv2RHV6j9cQqA4Czz333D4SitdWh7d4WcsEtGDH4erf/9ZyH+kbBCAAAQi4I4CANYJl1lpFYMUrBHm+Db0C4bDr1pOAlR1+yQ4EIACBaiWgm+p2RYfwB61aBxC/IQABCIQnsHWfffb5v/DFw5dsbW3dP5PJrA5fo3pKep43Z/ny5TdWj8d4CgEIQMAdAQSskSz9bPw5sLwSkrh7qQ6TSY/sCfsQgAAEqo6Aoq9uUvRVW9U5jsMQgAAEIFAKgd9H9YOFIrusBKx4F2YqhUiIOvqh57EQxSgCgVgI6H33sXPPPfcUh42/Wte8Q3OYqnYCCFgjRlC5pGbEnUvKa2wuOgfWjAMzazqfUuyYb+yI7rALgZIJ6Ne9f1Nl8qPkIZjNZv9dp/bNc7rowxJurtTjT0VXrJEK+uO1raGh4dElS5YwdbBGxpRuQAACEBiLgD73HhmrDOd3IdAzffr0JEy5nDR37tyP7OJdRAf0vWuGS9O69l5XSf+L8P3Piq77bRHlE1dU3+nOS5xTOFRTBBCwRgynxKt4I7CszR521PSuES6F2j3CtvXdvvrSZ5UHa79QFSgEgTEItLe3/2CMInV9Wl96PqkPaGcClmzdpi8sd9Q1VDoPAQhAAAJ1RQABq/jhFrPHFLWWhGkXe0tUuqH4HiSjhr53nR48kuHNDi80vgv1qqoFrB29YQ8C0RDwojFbfVb1RyyIXto/Ts/lwNpZtuQPpaIjt+LsK21DAAIQgAAEIAABCNQvAd2s/65+e19azxH9SuNWRbUeriJfcRUCsRBAwNqOfenDZ+2rhfyaYhmFoUZLWoFwqHIpqxcO12UHAhCAAAQgAAEIQAACFSEgIab7pJNOSsJUuIr012EjiH4OYSbJlN4T/ZoeSn6zJA0KviSSAALW0LD0m3inDwZ+2NJFKEVvdQ51hWcIQAACEIAABCAAAQgkmMBjs2fPziTYv0S6lkqlyBuWyJFx4tQfNT20x4kljECghgkgYA0Nrhe/gKVpjOVMAyyn7hAFniEAAQhAAAIQgAAEIBA1AYSYIgkrQqc3nU6z2EmR3KqoONMHq2iwcDU+AghYQ+z9bOwRWNazZURRWQSsobHkGQIQgAAEIAABCEAgsQQkxjAVrvjRefzqq6/uL74aNaqEAAJWlQwUbsZLgFUIh/hb22J8f+hVPM/ZciKwPAlY2Xj8plUIQAACEIAABCAAAQiEJOB5HhFYIVmNKIboNwJGre1K1EXAqrVBrWB/5s+f/ypFaJ6lJg/Ro9JBSgdXsKsGAWuIdtafMbQb17PvpcqIompQ3SSsqhsXPdqFAAQgAAEIQAACEKgCAj377rvvn6rAz0S5iOiXqOFw6ozEq23Tpk1jeqhTqvVjbM6cOf8i8ep7SkdUF9pOpdW55F5JNv4cWOObS58GeOohh3UpCTzJMJN7heEZBCAAAQhAAAIQgIAxjytZNb+6FnklZLNZotaKZFZFxR/lPRHtaEnc2RRtC/FYv+iiiyZKAP1OvYhXAWUErKFrzdcUwni39NmvO2BdqS5Yq5VcfLu21PrUgwAEIAABCEAAAhCAQNQEdLOFEFM85L7p06f/sfhq1KgGAkwfrMgo1eR98pYtW94p8WpKRQgmpJGKC1jWJC+0baW/MmWMPz3OMbHWrLG2rbwkVtaUMQUxzt7TNgQgAAEIQAACEIBAPRBAwCp+lMXsj4rQ6Su+JjWqhMBvq8TPanWzZ/Lkyf9brc4X8luRmccWOl+L5youYBljD731yYXNSYL53MM/e6XSt0vEinHzyxefrG/KWMUwxr7TNAQgAAEIQAACEIBAXRBQtMBv6qKjDjspZkStOeSZNFPKb0YC92gH5a7LL798a7RNxGNdfxveGE/L8bVa8URfgtz49AtbXqsuPxRft3du2abtu30T8wqEtvT8V0O98T2JYOXFcA2Z4hkCEIBA3RBIpVI9Sn55dzkd1mfbU+XUj7ju7/TrfTmfDi9E7B/mIQCB+iHw+6uvvvoP9dNdNz3V5xQChxuUibOiz+eNS5cu/cuyZcsS51utOCTGi2ulLyP7oajMhq6urtfrO+jIwzW/X3EBKyBq/ex/CPQpuphip33jgwunbMhs+njcI62plS6ip5hCGPdA0j4EIFB1BBYvXvy8nH5r1Tke0mHdLF4UsijFIAABCERJoEvf/T8YZQM1artP04R+WKN9q/tu6Z74kSTcE9fwQNyp70F31GL/1q1b92pdP+NrsW+F+hSLgCXQJy/99VmflmP/Wci5qM8Fua+e+/XPrlX+q0OibmtM+9ZzID4FUVyxa4JjdpUCEIAABCAAAQjER2DSpElbN2zYcGV8HtByPRHQzXmw4uCfFUX0fUWabKmnvpfbV7HL6tG6fPlyImHLhZnc+g/E7ZoE0p64fYio/c7GxsYzIrIdu1mNW91NHwygxyJgBQ37fvbLSx4484SUZy9sPfbaJ4NjldokoNmlD51z/PMP/EzhhH4wnTH+zUEOLDMggpUzSyR+DHgAAQhAAAIQgEC0BBYtWrRZLVwYbStYh0B8BHRjt03Czw/i86C8lnWv4sv/v0r0u1FTyx4vzxq1k0pAY5yWwHJD3P4pB9djes/E7YbT9sV2jd4/75Rovs6p4WQZQ8Cq9Hjob/M70xn/nVc9cMaLmlio+fB+b9Q+WGMmL33gY69WzqvJUbdVlH3PLzsCa4LX2NGdCX7kYoMABCAAAQhAAAIQgEB9EliyZInuLcz76rP39LoaCEhg6ZVw1Kpr9S9x+ztt2rR71qxZ84j8OCpuXxy1f6fsnCnxd60je4k0Iy3lmEQ6FrFTsUVg7dQv30yVeDVzp2MRvRicYJe8aXY2M75sAevEA/ufvWO16VfvGiPCh1kIQAACEIAABCAAAQhAoL4JbJAAs7i+EZTWe3ELAuy6FHl1u8Srv5dmxW0tJQNPL1iw4F/6+vpukuXj3VqvjLVAEFRLd0kUXNze3r6qMq3G18r8+fMnaQGiV+lais+JmFpOhoAVU+eT06ztbX3TsufnmfayXLK2LXv76kvXaH7mQWUZojIEIAABCEAAAhCAAAQgAIHcBNYrMfYXcp/iaDUSCMQ0CVlv1qp2R0gUOUJCUFM19EO+bpKvXXr8qZ5y7GnK59Hqu1cNY+TaRwQs10RLs9cZqPGlVR1da2A1w4NGH+U1BCAAAQhAAAIQgAAEIAABCEAgFwEJWEEiLKX1GXjkKsKxhBCQeFWX0wcD/HWp2iXkutvhhjVlTx/cYcyprRFm2YUABCAAAQhAAAIQgAAEIAABCEAgTgISsGo2gbsCezYUYouAVYhOhc4p9qrTXVPWpRjmzi0sQQACEIAABCAAAQhAAAIQgAAEIFAWgRoXsH5ZCA4CViE6FTrnE4FVIdI0AwEIQAACEIAABCAAAQhAAAIQqE4C55133nR5PqM6vR/T61uVhP97hUqRA6sQnUqdcyhgpXzbkTGO0mlVqv+0A4HqI/CQXO5y5bZCZV9yZQs7EIAABCAAAQhAAAIQgEBtEtBqkfvp3uGWWuqdIsrWKxH/vdOmTbtOfSsoZiBgJWDkU77nbNqfZzwJWEH+PTYIQCAqAsuXLz8zKtvYrXkCN+uD+c8uehmsuOPCDjbCE9AXrGUav9vC1yhcUsuoP124BGchAAEIQAACEIDADgJaAfR3evWeHUfqaw8BKwHjbVPu8lY1Tmrq6N+STkCvcAECEIAABEYT2P6lI/jiwVaFBFasWPELuR082CAAAQhUDQH94PF8Npu9w6HDax3awhQEIACB0AQQsEKjiq5gQ8adgPXmaZ97ftXqS3v0K/G46DzGMgQgAAEIQAACEIAABCBQDQSUU+Y38vO0avAVHyEAAQgUIkAS90J0KnBOUxG6P/6mbzvNfyPxak0FXKcJCEAAAhCAAAQgAAEIQAACEIAABCBQEQIIWBXBXKAR33eW/2q4FYdJ4YdtsgMBCEAAAhCAAAQgAAEIQAACEIAABGIigIAVE/jhZq3tHN53t+NeFHPnG5YgAAEIQAACEIAABCAAAQhAAAIQgEBRBDxjzdaialDYLQHfRCA2ucup5baz9WOtaXI/76v6GW56CgEIQAACEIAABCAAAQhAAAIRE/CsMawiETHkQuZ9a54pdL6Uc1IlndssxY+6raO8ZsdObdtUt/2n4xCAAAQgAAEIQAACEIAABCAAAccENIXQdjm2ibkiCKQ883gRxUMV9Xzfuc1QDVNogIBEYd5TXAsQgAAEIAABCEAAAhCAAAQgAAGHBKR1+I85tIepIglkPS9Y1tbplmpIPWqNTTs1irHwBHzz+/CFKQkBCEAAAhCAAAQgAAEIQAACEIDAWAS8lEn9aKxCnI+GgESmjgVvvMZ5DqxZL2vrkcePROM1VsciYFPmx2OV4TwEIAABCEAAAhCAAAQgAAEIQAAC4Ql4r3zTgfdpytP68FUo6YyA53/bma3Rhqz5zuhDvI6eQBD5Nj414WfRt0QLEIAABCAAAQhAAAIQgAAEIACB+iHgzbJtad/axfXT5cT0ND2uuWFFZN5MmnKT8puRSDwywLkNKyn/tSce+FkE4dx4OAoBCEAAAhCAAAQgAAEIQAACECiJgJK4GzN+z9Tl1prnSrJApZIIWM8uPef134ks2fdp+31qq/XMl0tyjkqlEdDqg15T6rLSKlMLAhCAAAQgAAEIQAACEIAABCAAgXwEBgSsc175nc2+8T6brxDH3RKQWPh3M2Xi591a3dVa08GpyxWF9eiuZzgSBQFr/C+dekBbZKJkFD5jEwIQgAAEIAABCEAAAhCAAAQgUA0EBgSswNHz3nTtd6y17dXgdHX7aHt9356x4IilW6LuRzA91NrUGRLMNkbdVr3b13vnR6ce8u9fqncO9B8CEIAABCAAAQhAAAIQgAAEIBAFgWEBKzB++HEvW6iInTujaAibAwTSnmdmn3f8dfdVisdph7b9UYnF32k0va1SbdZdO9b8rmlK6qMSsfy66zsdhgAEIAABCEAAAhCAAAQgAAEIVIDATgJWELHT2Nz8TolY36pA23XVhMSNjSaVet/84677SaU7fuqh//4r66XeLhFrXaXbrvX2gsir5ikNb5m1T1vkEXW1zpL+QQACEIAABCAAAQhAAAIQgAAE8hGw+U5c9esz5yme5Mu+7++WrwzHQxKw9jfNqcYPzDnmW38NWSOSYnc9/R/7ZjI9N/jGPyWSBurJqCLaBnJeadogkVf1NPD0FQIQgAAEIAABCEAAAhCAAATiIJBXwAqc+dYD5+zZ4/d/XlPQ5kv0GBeHg9XcpnJPafqe9//mHXfNfydJ5Lh9ddvbrJ++TPPdjq1mvnH4rvdC2rfm2mC1QRK2xzECtAkBCEAAAhCAAAQgAAEIQAAC9UigoIA1BGTJE/MnmQ1b3qaphe81xj9az9MlaE0eOs+ziCgcR/+96Fv7tHZXpVINt81947cfTJJwNXqc7vzbpa/Lpv13SMh6my6El/vG7m18f6dppaPr1N3rgUgr06WxfcymzI/Gpyb87MQDP7u+7jjQYQhAAAIQgAAEIAABCEAAAhCAQIwEQglYufwLRK2GbWlELMHx0tnsocfMeDHIIZaLVbUc8/2VqTue+tPU8Q2NqWrxOUo/myb3bz12atumKNvANgQgAAEIQAACEIAABCAAAQhAAAIQgAAEIAABCEAAAhCAAAQgAAEIQAACEIBAlRP4/2rCV2GaQxixAAAAAElFTkSuQmCC;" vertex="1" parent="2">
          <mxGeometry x="37.98" y="192" width="142.02" height="25.56" as="geometry" />
        </mxCell>
        <mxCell id="W03iT5deWGhQW9dc3xwe-60" value="" style="shape=image;verticalLabelPosition=bottom;labelBackgroundColor=default;verticalAlign=top;aspect=fixed;imageAspect=0;image=data:image/svg+xml,PHN2ZyB4bWxuczp4bGluaz0iaHR0cDovL3d3dy53My5vcmcvMTk5OS94bGluayIgeG1sbnM9Imh0dHA6Ly93d3cudzMub3JnLzIwMDAvc3ZnIiB2ZXJzaW9uPSIxLjEiIHZpZXdCb3g9IjAgMCAyMjEgMjgiIGhlaWdodD0iMjhweCIgd2lkdGg9IjIyMXB4Ij4mI3hhOyAgICAmI3hhOyAgICA8dGl0bGU+SGlrdmlzaW9uIExvZ28tUjwvdGl0bGU+JiN4YTsgICAgPGRlc2M+Q3JlYXRlZCB3aXRoIFNrZXRjaC48L2Rlc2M+JiN4YTsgICAgPGcgZmlsbC1ydWxlPSJldmVub2RkIiBmaWxsPSJub25lIiBzdHJva2Utd2lkdGg9IjEiIHN0cm9rZT0ibm9uZSIgaWQ9Img1Ij4mI3hhOyAgICAgICAgPGcgaWQ9Ikhpa3Zpc2lvbi1Mb2dvLVIiPiYjeGE7ICAgICAgICAgICAgPGcgaWQ9IuWIhue7hCI+JiN4YTsgICAgICAgICAgICAgICAgPHBhdGggZmlsbD0iIzZENkU3MSIgaWQ9IuW9oueKtiIgZD0iTTEyMi44NTg3MDIsMTIuOTk4Mzc0IEMxMTkuMDU3Nzc1LDguMDU4NTM2NTkgMTIyLjEzMDM4MSwwLjM2NDIyNzY0MiAxMjkuMDcyMTk0LDAuMjczMTcwNzMyIEwxNDMuMTgzNDE5LDAuMjczMTcwNzMyIEwxNDEuOTA4ODU3LDMuNzEwNTY5MTEgTDEzNC40NDM1NjMsMy43MTA1NjkxMSBDMTMyLjk4NjkyMSwzLjcxMDU2OTExIDEzMS45Mzk5NTksMy43MTA1NjkxMSAxMzAuNTA2MDc2LDMuNzEwNTY5MTEgQzEyOC42MTY5OTMsMy43MzMzMzMzMyAxMjcuNTQ3MjcxLDYuMDU1Mjg0NTUgMTI4LjYxNjk5Myw3LjQ2NjY2NjY3IEMxMzAuMzY5NTE2LDEwLjE3NTYwOTggMTMzLjM3Mzg0MSwxMi4wNjUwNDA3IDEzNS4yNDAxNjUsMTQuODQyMjc2NCBDMTM5LjMxNDIxMiwyMC4zMjg0NTUzIDEzNS4xOTQ2NDUsMjcuNDc2NDIyOCAxMjkuMTE3NzE0LDI3LjQ3NjQyMjggTDExMy42MTgxMjYsMjcuNDc2NDIyOCBMMTE0Ljg5MjY4OCwyNC4wMzkwMjQ0IEwxMjMuMzEzOTAzLDI0LjAzOTAyNDQgQzEyNC43NzA1NDYsMjQuMDM5MDI0NCAxMjUuNzAzNzA4LDI0LjAzOTAyNDQgMTI3LjExNDgzLDI0LjAzOTAyNDQgQzEyOS4wMDM5MTMsMjQuMDE2MjYwMiAxMzAuMDUwODc1LDIxLjY5NDMwODkgMTI5LjA3MjE5NCwyMC4zMDU2OTExIEMxMjcuNTI0NTExLDE3Ljc3ODg2MTggMTI0Ljc3MDU0NiwxNS4zNDMwODk0IDEyMi44NTg3MDIsMTIuOTk4Mzc0IEwxMjIuODU4NzAyLDEyLjk5ODM3NCBaIE0xMDguNTQyNjM2LDI3LjUyMTk1MTIgQzEwNS44MTE0MzIsMjcuNTIxOTUxMiAxMDMuNTU4MTg3LDI3LjUyMTk1MTIgMTAwLjg0OTc0MywyNy41MjE5NTEyIEwxMTAuODg2OTIxLDAuMjk1OTM0OTU5IEwxMTguNTc5ODE1LDAuMjk1OTM0OTU5IEwxMDguNTQyNjM2LDI3LjUyMTk1MTIgTDEwOC41NDI2MzYsMjcuNTIxOTUxMiBaIE0xNDYuNDM4MTA1LDI3LjUyMTk1MTIgQzE0My43MDY5LDI3LjUyMTk1MTIgMTQxLjQ1MzY1NiwyNy41MjE5NTEyIDEzOC43MjI0NTEsMjcuNTIxOTUxMiBMMTQ4Ljc1OTYyOSwwLjI5NTkzNDk1OSBMMTU2LjQ1MjUyMywwLjI5NTkzNDk1OSBMMTQ2LjQzODEwNSwyNy41MjE5NTEyIEwxNDYuNDM4MTA1LDI3LjUyMTk1MTIgWiBNMTU4LjA5MTI0Niw4LjUzNjU4NTM3IEMxNjAuNzc2OTMxLDIuODY4MjkyNjggMTY2LjQyMTQyMSwtMC4xMzY1ODUzNjYgMTcxLjY1NjIzMSwwLjAyMjc2NDIyNzYgTDE3My42ODE4NzQsMC4wMjI3NjQyMjc2IEwxNzMuNjgxODc0LDAuMDIyNzY0MjI3NiBMMTc2LjQzNTgzOSwwLjAyMjc2NDIyNzYgQzE4MC40NjQzNjcsMC4yMDQ4NzgwNDkgMTgyLjg5OTY5MSwzLjUyODQ1NTI4IDE4My4xMjcyOTEsNi4yODI5MjY4MyBDMTgzLjE3MjgxMiw2Ljk0MzA4OTQzIDE4My4xNTAwNTEsNy41ODA0ODc4IDE4My4wODE3NzEsOC4wNTg1MzY1OSBDMTgzLjAxMzQ5MSw4LjM3NzIzNTc3IDE4Mi45NDUyMTEsOC42NzMxNzA3MyAxODIuODc2OTMxLDguOTkxODY5OTIgQzE4Mi4wMzQ4MDksMTIuNDk3NTYxIDE4MC43NjAyNDcsMTYuMDQ4NzgwNSAxNzkuMDk4NzY0LDE5LjI1ODUzNjYgQzE3Ni40MTMwNzksMjQuOTI2ODI5MyAxNzAuNzY4NTg5LDI3LjkzMTcwNzMgMTY1LjUzMzc4LDI3Ljc3MjM1NzcgTDE2My41MDgxMzYsMjcuNzcyMzU3NyBMMTYzLjQ4NTM3NiwyNy43NzIzNTc3IEwxNjAuNzU0MTcxLDI3Ljc3MjM1NzcgQzE1Ni43MjU2NDQsMjcuNTkwMjQzOSAxNTQuMjkwMzE5LDI0LjI2NjY2NjcgMTU0LjA4NTQ3OSwyMS41MTIxOTUxIEMxNTQuMDM5OTU5LDIwLjg1MjAzMjUgMTU0LjAzOTk1OSwyMC4yMzczOTg0IDE1NC4xMzA5OTksMTkuNzM2NTg1NCBDMTU0LjE5OTI3OSwxOS40NDA2NTA0IDE1NC4yNjc1NTksMTkuMTIxOTUxMiAxNTQuMzM1ODM5LDE4LjgwMzI1MiBDMTU1LjEzMjQ0MSwxNS4yOTc1NjEgMTU2LjQwNzAwMywxMS43NDYzNDE1IDE1OC4wOTEyNDYsOC41MzY1ODUzNyBMMTU4LjA5MTI0Niw4LjUzNjU4NTM3IFogTTE3Mi42NTc2NzMsMi44NDU1Mjg0NiBMMTcyLjY1NzY3MywyLjg0NTUyODQ2IEMxNjkuODEyNjY3LDIuOTM2NTg1MzcgMTY3LjQyMjg2Myw0LjU1Mjg0NTUzIDE2Ni4zOTg2NjEsNy4yMTYyNjAxNiBMMTYxLjMwMDQxMiwyMS4wNzk2NzQ4IEMxNjEuMTYzODUyLDIxLjM5ODM3NCAxNjEuMDk1NTcyLDIxLjc2MjYwMTYgMTYxLjExODMzMiwyMi4xMjY4MjkzIEMxNjEuMTE4MzMyLDIyLjEyNjgyOTMgMTYxLjExODMzMiwyMi4xMjY4MjkzIDE2MS4xMTgzMzIsMjIuMTI2ODI5MyBDMTYxLjExODMzMiwyMy42MDY1MDQxIDE2Mi4yNzkwOTQsMjQuODM1NzcyNCAxNjMuNzEyOTc2LDI0Ljk0OTU5MzUgTDE2NC40NjQwNTgsMjQuOTQ5NTkzNSBDMTY3LjMwOTA2MywyNC44NTg1MzY2IDE2OS42OTg4NjcsMjMuMjQyMjc2NCAxNzAuNzIzMDY5LDIwLjU3ODg2MTggTDE3NS43OTg1NTgsNi43MTU0NDcxNSBDMTc1LjkzNTExOCw2LjM5Njc0Nzk3IDE3Ni4wMDMzOTksNi4wMzI1MjAzMyAxNzUuOTgwNjM5LDUuNjY4MjkyNjggQzE3NS45ODA2MzksNS42NjgyOTI2OCAxNzUuOTgwNjM5LDUuNjY4MjkyNjggMTc1Ljk4MDYzOSw1LjY2ODI5MjY4IEMxNzUuOTgwNjM5LDQuMTg4NjE3ODkgMTc0LjgxOTg3NiwyLjk1OTM0OTU5IDE3My4zNjMyMzQsMi44NDU1Mjg0NiBMMTcyLjY1NzY3MywyLjg0NTUyODQ2IEwxNzIuNjU3NjczLDIuODQ1NTI4NDYgWiBNOTAuNjk4NzY0MiwxOS4wMDgxMzAxIEwxMDMuMjE2Nzg3LDAuMjk1OTM0OTU5IEwxMDcuNzQ2MDM1LDAuMjk1OTM0OTU5IEw5MC4yNDM1NjMzLDI2LjM4MzczOTggTDkwLjI0MzU2MzMsMjYuMzgzNzM5OCBDODkuNzg4MzYyNSwyNy4wNjY2NjY3IDg5LjAzNzI4MTIsMjcuNDk5MTg3IDg4LjE3MjM5OTYsMjcuNTQ0NzE1NCBMODguMDEzMDc5MywyNy41NDQ3MTU0IEM4Ny45OTAzMTkzLDI3LjU0NDcxNTQgODcuOTQ0Nzk5MiwyNy41NDQ3MTU0IDg3LjkyMjAzOTEsMjcuNTQ0NzE1NCBDODcuOTIyMDM5MSwyNy41NDQ3MTU0IDg3Ljk0NDc5OTIsMjcuNTQ0NzE1NCA4Ny45NDQ3OTkyLDI3LjU0NDcxNTQgTDg3LjY3MTY3ODcsMjcuNTQ0NzE1NCBMODQuOTg1OTkzOCwyNy41NDQ3MTU0IEw4My42NjU5MTE0LDI3LjU0NDcxNTQgTDgxLjUyNjQ2NzYsMC4zMTg2OTkxODcgTDg5LjIxOTM2MTUsMC4zMTg2OTkxODcgTDkwLjY5ODc2NDIsMTkuMDA4MTMwMSBMOTAuNjk4NzY0MiwxOS4wMDgxMzAxIFogTTE5MS4yMjk4NjYsOS4wODI5MjY4MyBMMTkxLjIwNzEwNiw4Ljc0MTQ2MzQxIEwxODQuMjY1Mjk0LDI3LjQ5OTE4NyBMMTgwLjMwNTA0NiwyNy40OTkxODcgTDE5MC4zODc3NDUsMC4yNzMxNzA3MzIgTDE5NS40MTc3MTQsMC4yNzMxNzA3MzIgTDIwMi42NzgxNjcsMTguNjY2NjY2NyBMMjA5LjQ4MzQxOSwwLjI3MzE3MDczMiBMMjEzLjQ2NjQyNiwwLjI3MzE3MDczMiBMMjAzLjM4MzcyOCwyNy40OTkxODcgTDE5OS43NDIxMjIsMjcuNDk5MTg3IEMxOTguNzQwNjgsMjcuNDUzNjU4NSAxOTcuODc1Nzk4LDI2LjgxNjI2MDIgMTk3LjQ4ODg3NywyNS45Mjg0NTUzIEwxOTEuMjI5ODY2LDkuMDgyOTI2ODMgTDE5MS4yMjk4NjYsOS4wODI5MjY4MyBaIi8+JiN4YTsgICAgICAgICAgICAgICAgPHBhdGggZmlsbD0iI0Q3MTgyMCIgaWQ9IuW9oueKtiIgZD0iTTM5LjY0Nzk5MTgsMjcuNTIxOTUxMiBDMzYuOTE2Nzg2OCwyNy41MjE5NTEyIDM0LjE4NTU4MTksMjcuNTIxOTUxMiAzMS40NTQzNzY5LDI3LjUyMTk1MTIgTDQxLjUxNDMxNTEsMC4yOTU5MzQ5NTkgTDQxLjc0MTkxNTYsMC4yOTU5MzQ5NTkgTDQ5LjQ1NzU2OTUsMC4yOTU5MzQ5NTkgTDQ5LjY4NTE2OTksMC4yOTU5MzQ5NTkgTDM5LjY0Nzk5MTgsMjcuNTIxOTUxMiBMMzkuNjQ3OTkxOCwyNy41MjE5NTEyIFogTTE0LjQyOTg2NjEsMTAuNzY3NDc5NyBMMjQuMTcxMTYzNywxMC43Njc0Nzk3IEwyOC4wNDAzNzA4LDAuMjczMTcwNzMyIEwzNi4yMTEyMjU1LDAuMjczMTcwNzMyIEwyNi43ODg1Njg1LDI1LjgzNzM5ODQgTDI2Ljc4ODU2ODUsMjUuODM3Mzk4NCBDMjYuNzg4NTY4NSwyNS44MzczOTg0IDI2Ljc4ODU2ODUsMjUuODYwMTYyNiAyNi43NjU4MDg0LDI1Ljg2MDE2MjYgQzI2LjM3ODg4NzcsMjYuODE2MjYwMiAyNS40Njg0ODYxLDI3LjQ3NjQyMjggMjQuMzc2MDA0MSwyNy40OTkxODcgQzIyLjIzNjU2MDIsMjcuNDk5MTg3IDIwLjExOTg3NjQsMjcuNDk5MTg3IDE3Ljk4MDQzMjUsMjcuNDk5MTg3IEwyMi43ODI4MDEyLDE0LjQ3ODA0ODggTDEzLjA2NDI2MzYsMTQuNDc4MDQ4OCBMOC4yNjE4OTQ5NSwyNy40OTkxODcgQzUuNTMwNjkwMDEsMjcuNDk5MTg3IDIuODIyMjQ1MTEsMjcuNDk5MTg3IDAuMDkxMDQwMTY0OCwyNy40OTkxODcgTDEwLjEyODIxODMsMC4yNzMxNzA3MzIgTDE4LjI5OTA3MzEsMC4yNzMxNzA3MzIgTDE0LjQyOTg2NjEsMTAuNzY3NDc5NyBMMTQuNDI5ODY2MSwxMC43Njc0Nzk3IFogTTU5LjU2MzAyNzgsMTAuNTE3MDczMiBMNzIuOTAwNDExOSwwLjI3MzE3MDczMiBMNzkuMDAwMTAzLDAuMjczMTcwNzMyIEw2NS4zNjY4MzgzLDEwLjc0NDcxNTQgTDc0LjAxNTY1NCwyNy40OTkxODcgTDY3LjA3Mzg0MTQsMjcuNDk5MTg3IEM2Ny4wOTY2MDE0LDI3LjQ5OTE4NyA2Ny4xMTkzNjE1LDI3LjQ5OTE4NyA2Ny4xNDIxMjE1LDI3LjQ3NjQyMjggQzY2LjA3MjM5OTYsMjcuNTQ0NzE1NCA2NS4wOTM3MTc4LDI2LjkzMDA4MTMgNjQuNjM4NTE3LDI2LjAxOTUxMjIgQzY0LjYzODUxNywyNi4wMTk1MTIyIDY0LjYzODUxNywyNS45OTY3NDggNjQuNjE1NzU3LDI1Ljk5Njc0OCBMNjQuNjE1NzU3LDI2LjAxOTUxMjIgTDU5LjE5ODg2NzEsMTUuNTAyNDM5IEw1Ny4xNTA0NjM0LDE3LjA3MzE3MDcgTDUzLjMwNDAxNjUsMjcuNTIxOTUxMiBDNTAuNTcyODExNSwyNy41MjE5NTEyIDQ3Ljg0MTYwNjYsMjcuNTIxOTUxMiA0NS4xMzMxNjE3LDI3LjUyMTk1MTIgTDU1LjE3MDMzOTksMC4yOTU5MzQ5NTkgTDYzLjM0MTE5NDYsMC4yOTU5MzQ5NTkgTDU5LjU2MzAyNzgsMTAuNTE3MDczMiBMNTkuNTYzMDI3OCwxMC41MTcwNzMyIFoiLz4mI3hhOyAgICAgICAgICAgIDwvZz4mI3hhOyAgICAgICAgICAgIDxwYXRoIGZpbGwtcnVsZT0ibm9uemVybyIgZmlsbD0iIzZENkU3MSIgaWQ9IuW9oueKtiIgZD0iTTIxNi40NDc5OTIsNC44MDMyNTIwMyBMMjE2LjQ0Nzk5MiwxLjM0MzA4OTQzIEwyMTcuOTcyOTE1LDEuMzQzMDg5NDMgQzIxOC4yOTE1NTUsMS4zNDMwODk0MyAyMTguNTE5MTU2LDEuMzY1ODUzNjYgMjE4LjY3ODQ3NiwxLjQzNDE0NjM0IEMyMTguODM3Nzk2LDEuNTAyNDM5MDIgMjE4Ljk3NDM1NiwxLjYxNjI2MDE2IDIxOS4wNjUzOTYsMS43NTI4NDU1MyBDMjE5LjE1NjQzNywxLjkxMjE5NTEyIDIxOS4yMDE5NTcsMi4wOTQzMDg5NCAyMTkuMjAxOTU3LDIuMjc2NDIyNzYgQzIxOS4yMDE5NTcsMi41MjY4MjkyNyAyMTkuMTMzNjc3LDIuNzMxNzA3MzIgMjE4Ljk3NDM1NiwyLjg5MTA1NjkxIEMyMTguODE1MDM2LDMuMDUwNDA2NSAyMTguNTY0Njc2LDMuMTY0MjI3NjQgMjE4LjI0NjAzNSwzLjIwOTc1NjEgQzIxOC4zNTk4MzUsMy4yNzgwNDg3OCAyMTguNDUwODc1LDMuMzIzNTc3MjQgMjE4LjUxOTE1NiwzLjM5MTg2OTkyIEMyMTguNjU1NzE2LDMuNTA1NjkxMDYgMjE4Ljc2OTUxNiwzLjY2NTA0MDY1IDIxOC45MDYwNzYsMy44NDcxNTQ0NyBMMjE5LjQ5NzgzNyw0Ljc4MDQ4NzggTDIxOC45Mjg4MzYsNC43ODA0ODc4IEwyMTguNDczNjM1LDQuMDUyMDMyNTIgQzIxOC4zMzcwNzUsMy44NDcxNTQ0NyAyMTguMjIzMjc1LDMuNjg3ODA0ODggMjE4LjEzMjIzNSwzLjU3Mzk4Mzc0IEMyMTguMDQxMTk1LDMuNDYwMTYyNiAyMTcuOTcyOTE1LDMuMzkxODY5OTIgMjE3LjkwNDYzNCwzLjM0NjM0MTQ2IEMyMTcuODM2MzU0LDMuMzAwODEzMDEgMjE3Ljc2ODA3NCwzLjI3ODA0ODc4IDIxNy42OTk3OTQsMy4yNTUyODQ1NSBDMjE3LjY1NDI3NCwzLjI1NTI4NDU1IDIxNy41NjMyMzQsMy4yMzI1MjAzMyAyMTcuNDQ5NDM0LDMuMjMyNTIwMzMgTDIxNi45MDMxOTMsMy4yMzI1MjAzMyBMMjE2LjkwMzE5Myw0Ljc4MDQ4NzggTDIxNi40NDc5OTIsNC43ODA0ODc4IEwyMTYuNDQ3OTkyLDQuODAzMjUyMDMgWiBNMjE2LjkwMzE5MywyLjg2ODI5MjY4IEwyMTcuODgxODc0LDIuODY4MjkyNjggQzIxOC4wODY3MTUsMi44NjgyOTI2OCAyMTguMjQ2MDM1LDIuODQ1NTI4NDYgMjE4LjM4MjU5NSwyLjggQzIxOC40OTYzOTUsMi43NTQ0NzE1NCAyMTguNTg3NDM2LDIuNjg2MTc4ODYgMjE4LjY1NTcxNiwyLjU5NTEyMTk1IEMyMTguNzIzOTk2LDIuNTA0MDY1MDQgMjE4Ljc0Njc1NiwyLjM5MDI0MzkgMjE4Ljc0Njc1NiwyLjI3NjQyMjc2IEMyMTguNzQ2NzU2LDIuMTE3MDczMTcgMjE4LjY3ODQ3NiwxLjk4MDQ4NzggMjE4LjU2NDY3NiwxLjg2NjY2NjY3IEMyMTguNDUwODc1LDEuNzUyODQ1NTMgMjE4LjI2ODc5NSwxLjcwNzMxNzA3IDIxNy45OTU2NzUsMS43MDczMTcwNyBMMjE2LjkwMzE5MywxLjcwNzMxNzA3IEwyMTYuOTAzMTkzLDIuODY4MjkyNjggWiIvPiYjeGE7ICAgICAgICAgICAgPHBhdGggZmlsbC1ydWxlPSJub256ZXJvIiBmaWxsPSIjNkQ2RTcxIiBpZD0i5b2i54q2IiBkPSJNMjE3Ljg4MTg3NCwwLjE4MjExMzgyMSBDMjE2LjI2NTkxMSwwLjE4MjExMzgyMSAyMTQuOTQ1ODI5LDEuNTAyNDM5MDIgMjE0Ljk0NTgyOSwzLjExODY5OTE5IEMyMTQuOTQ1ODI5LDQuNzM0OTU5MzUgMjE2LjI2NTkxMSw2LjA1NTI4NDU1IDIxNy44ODE4NzQsNi4wNTUyODQ1NSBDMjE5LjQ5NzgzNyw2LjA1NTI4NDU1IDIyMC44MTc5Miw0LjczNDk1OTM1IDIyMC44MTc5MiwzLjExODY5OTE5IEMyMjAuODE3OTIsMS41MDI0MzkwMiAyMTkuNDk3ODM3LDAuMTgyMTEzODIxIDIxNy44ODE4NzQsMC4xODIxMTM4MjEgWiBNMjE3Ljg4MTg3NCw1LjcxMzgyMTE0IEMyMTYuNDQ3OTkyLDUuNzEzODIxMTQgMjE1LjI4NzIzLDQuNTUyODQ1NTMgMjE1LjI4NzIzLDMuMTE4Njk5MTkgQzIxNS4yODcyMywxLjY4NDU1Mjg1IDIxNi40NDc5OTIsMC41MjM1NzcyMzYgMjE3Ljg4MTg3NCwwLjUyMzU3NzIzNiBDMjE5LjMxNTc1NywwLjUyMzU3NzIzNiAyMjAuNDc2NTE5LDEuNjg0NTUyODUgMjIwLjQ3NjUxOSwzLjExODY5OTE5IEMyMjAuNDc2NTE5LDQuNTUyODQ1NTMgMjE5LjMxNTc1Nyw1LjcxMzgyMTE0IDIxNy44ODE4NzQsNS43MTM4MjExNCBaIi8+JiN4YTsgICAgICAgIDwvZz4mI3hhOyAgICA8L2c+JiN4YTs8L3N2Zz4=;" vertex="1" parent="2">
          <mxGeometry x="45.480000000000004" y="352" width="154.5" height="19.57" as="geometry" />
        </mxCell>
        <mxCell id="16" value="其他第三方平台（Zata）" style="whiteSpace=wrap;" parent="2" vertex="1">
          <mxGeometry x="45.48000000000002" y="92" width="110" height="50" as="geometry" />
        </mxCell>
        <mxCell id="3" value="中间件" style="swimlane;whiteSpace=wrap;startSize=23;" parent="1" vertex="1">
          <mxGeometry x="444.5" y="128" width="280" height="570" as="geometry" />
        </mxCell>
        <mxCell id="W03iT5deWGhQW9dc3xwe-69" style="edgeStyle=orthogonalEdgeStyle;rounded=0;orthogonalLoop=1;jettySize=auto;html=1;exitX=0.5;exitY=1;exitDx=0;exitDy=0;entryX=0.434;entryY=-0.056;entryDx=0;entryDy=0;entryPerimeter=0;" edge="1" parent="3" source="18" target="W03iT5deWGhQW9dc3xwe-70">
          <mxGeometry relative="1" as="geometry">
            <mxPoint x="150" y="462" as="targetPoint" />
            <Array as="points">
              <mxPoint x="150" y="352" />
              <mxPoint x="73" y="352" />
            </Array>
          </mxGeometry>
        </mxCell>
        <mxCell id="W03iT5deWGhQW9dc3xwe-79" style="edgeStyle=orthogonalEdgeStyle;rounded=0;orthogonalLoop=1;jettySize=auto;html=1;entryX=0.5;entryY=0;entryDx=0;entryDy=0;entryPerimeter=0;" edge="1" parent="3" source="18" target="W03iT5deWGhQW9dc3xwe-78">
          <mxGeometry relative="1" as="geometry">
            <Array as="points">
              <mxPoint x="150" y="352" />
              <mxPoint x="186" y="352" />
            </Array>
          </mxGeometry>
        </mxCell>
        <mxCell id="18" value="物联网平台" style="" parent="3" vertex="1">
          <mxGeometry x="95" y="266" width="110" height="50" as="geometry" />
        </mxCell>
        <mxCell id="W03iT5deWGhQW9dc3xwe-70" value="消息推送平台" style="rounded=0;whiteSpace=wrap;html=1;" vertex="1" parent="3">
          <mxGeometry x="20.5" y="452" width="120" height="60" as="geometry" />
        </mxCell>
        <mxCell id="W03iT5deWGhQW9dc3xwe-78" value="报表服务" style="rounded=0;whiteSpace=wrap;html=1;" vertex="1" parent="3">
          <mxGeometry x="125.5" y="382" width="120" height="60" as="geometry" />
        </mxCell>
        <mxCell id="4" value="管理人员" style="swimlane;whiteSpace=wrap" parent="1" vertex="1">
          <mxGeometry x="724.5" y="128" width="280" height="570" as="geometry" />
        </mxCell>
        <mxCell id="W03iT5deWGhQW9dc3xwe-73" style="edgeStyle=orthogonalEdgeStyle;rounded=0;orthogonalLoop=1;jettySize=auto;html=1;exitX=0.5;exitY=1;exitDx=0;exitDy=0;entryX=0.5;entryY=0;entryDx=0;entryDy=0;" edge="1" parent="4" source="33">
          <mxGeometry relative="1" as="geometry">
            <mxPoint x="145" y="499.9999999999999" as="targetPoint" />
          </mxGeometry>
        </mxCell>
        <mxCell id="33" value="统一APP" style="" parent="4" vertex="1">
          <mxGeometry x="90" y="405" width="110" height="50" as="geometry" />
        </mxCell>
        <mxCell id="W03iT5deWGhQW9dc3xwe-76" value="管理人员" style="text;strokeColor=none;align=center;fillColor=none;html=1;verticalAlign=middle;whiteSpace=wrap;rounded=0;" vertex="1" parent="4">
          <mxGeometry x="175.5" y="515" width="60" height="30" as="geometry" />
        </mxCell>
        <mxCell id="W03iT5deWGhQW9dc3xwe-77" value="" style="shape=umlActor;verticalLabelPosition=bottom;verticalAlign=top;html=1;outlineConnect=0;" vertex="1" parent="4">
          <mxGeometry x="130" y="500" width="30" height="60" as="geometry" />
        </mxCell>
        <mxCell id="19" value="" style="endArrow=open;strokeColor=#000033;endFill=1;rounded=0;entryX=0.506;entryY=0.013;entryDx=0;entryDy=0;entryPerimeter=0;" parent="1" source="16" target="18" edge="1">
          <mxGeometry relative="1" as="geometry">
            <mxPoint x="595" y="400" as="targetPoint" />
            <Array as="points">
              <mxPoint x="595" y="245" />
            </Array>
          </mxGeometry>
        </mxCell>
        <mxCell id="W03iT5deWGhQW9dc3xwe-67" style="edgeStyle=orthogonalEdgeStyle;rounded=0;orthogonalLoop=1;jettySize=auto;html=1;entryX=0.003;entryY=0.46;entryDx=0;entryDy=0;entryPerimeter=0;" edge="1" parent="1" source="W03iT5deWGhQW9dc3xwe-59" target="18">
          <mxGeometry relative="1" as="geometry">
            <mxPoint x="540" y="470" as="targetPoint" />
            <Array as="points">
              <mxPoint x="480" y="333" />
              <mxPoint x="480" y="417" />
            </Array>
          </mxGeometry>
        </mxCell>
        <mxCell id="W03iT5deWGhQW9dc3xwe-68" style="edgeStyle=orthogonalEdgeStyle;rounded=0;orthogonalLoop=1;jettySize=auto;html=1;entryX=0.005;entryY=0.826;entryDx=0;entryDy=0;entryPerimeter=0;" edge="1" parent="1" source="W03iT5deWGhQW9dc3xwe-60" target="18">
          <mxGeometry relative="1" as="geometry" />
        </mxCell>
        <mxCell id="W03iT5deWGhQW9dc3xwe-75" style="edgeStyle=orthogonalEdgeStyle;rounded=0;orthogonalLoop=1;jettySize=auto;html=1;entryX=0.005;entryY=0.794;entryDx=0;entryDy=0;entryPerimeter=0;" edge="1" parent="1" source="W03iT5deWGhQW9dc3xwe-70" target="33">
          <mxGeometry relative="1" as="geometry" />
        </mxCell>
        <mxCell id="W03iT5deWGhQW9dc3xwe-80" style="edgeStyle=orthogonalEdgeStyle;rounded=0;orthogonalLoop=1;jettySize=auto;html=1;entryX=0.005;entryY=0.136;entryDx=0;entryDy=0;entryPerimeter=0;" edge="1" parent="1" target="33">
          <mxGeometry relative="1" as="geometry">
            <mxPoint x="690" y="540" as="sourcePoint" />
            <mxPoint x="810" y="540" as="targetPoint" />
          </mxGeometry>
        </mxCell>
      </root>
    </mxGraphModel>
  </diagram>
</mxfile>
